<svg width="19" height="19" viewBox="0 0 19 19" fill="none" xmlns="http://www.w3.org/2000/svg">
<g clip-path="url(#clip0_1810_6680)">
<path d="M16.2075 18.3336V17.6671H2.79929C2.00142 17.6671 1.35231 17.0273 1.35231 16.241V11.0828C1.35231 10.2964 2.00142 9.66326 2.79929 9.6566H16.2075C17.0053 9.6566 17.6477 10.2964 17.6544 11.0828V16.241C17.6544 17.0273 17.0053 17.6605 16.2075 17.6671V18.3336V19C17.7491 19 19.0068 17.7671 19.0068 16.241V11.0828C19.0068 9.55663 17.7559 8.32373 16.2075 8.32373H2.79929C1.25089 8.32373 0 9.55663 0 11.0828V16.241C0 17.7604 1.25089 19 2.79929 19H16.2075V18.3336Z" fill="url(#paint0_linear_1810_6680)"/>
<path d="M2.34612 8.88357V6.73765C2.34612 6.4111 2.5084 6.09788 2.8262 5.83131C3.14399 5.5714 3.6173 5.39146 4.15822 5.39146H14.8347C15.3689 5.39146 15.849 5.5714 16.1668 5.83131C16.4913 6.09788 16.6468 6.4111 16.6468 6.73765V9.16347H17.9991V6.73765C17.9991 5.95793 17.6002 5.26484 17.0187 4.79833C16.4372 4.33183 15.6664 4.05859 14.828 4.05859H4.15822C3.32655 4.06526 2.55573 4.33183 1.97424 4.79833C1.39274 5.26484 0.993811 5.95126 1.00057 6.73765V8.88357H2.34612Z" fill="url(#paint1_linear_1810_6680)"/>
<path d="M3.34694 5.06489V3.11891C3.34694 2.13259 4.15833 1.33287 5.15904 1.33287H13.8815C14.8822 1.33287 15.6936 2.13259 15.6936 3.11891V5.03157H17.0459V3.11891C17.0459 1.39284 15.6259 0 13.8815 0H5.15904C3.4078 0 1.99463 1.39951 1.99463 3.11891V5.06489H3.34694Z" fill="url(#paint2_linear_1810_6680)"/>
</g>
<defs>
<linearGradient id="paint0_linear_1810_6680" x1="9.50338" y1="8.32373" x2="9.50338" y2="19" gradientUnits="userSpaceOnUse">
<stop stop-color="#FBF0BA"/>
<stop offset="1" stop-color="#AB84FF"/>
</linearGradient>
<linearGradient id="paint1_linear_1810_6680" x1="9.49982" y1="4.05859" x2="9.49982" y2="9.16347" gradientUnits="userSpaceOnUse">
<stop stop-color="#FBF0BA"/>
<stop offset="1" stop-color="#AB84FF"/>
</linearGradient>
<linearGradient id="paint2_linear_1810_6680" x1="9.52025" y1="0" x2="9.52025" y2="5.06489" gradientUnits="userSpaceOnUse">
<stop stop-color="#FBF0BA"/>
<stop offset="1" stop-color="#AB84FF"/>
</linearGradient>
<clipPath id="clip0_1810_6680">
<rect width="19" height="19" fill="white"/>
</clipPath>
</defs>
</svg>
