<svg width="22" height="20" viewBox="0 0 22 20" fill="none" xmlns="http://www.w3.org/2000/svg">
<g clip-path="url(#clip0_1810_6672)">
<path opacity="0.5" d="M11.5317 1.18777L11.6146 10.2233C11.6165 10.3884 11.6895 10.5516 11.8315 10.6382C12.4053 10.9843 12.7405 11.6823 12.5295 12.4335C12.3855 12.9428 11.9655 13.3537 11.4529 13.4894C10.3979 13.7706 9.44748 12.986 9.44748 11.9792C9.44748 11.5014 9.66044 11.0767 9.99763 10.7876C10.0883 10.709 10.1495 10.6028 10.1495 10.4809V1.30575C10.1495 1.23103 10.0469 1.20547 10.0134 1.27429L4.96151 11.3913C4.86094 11.5938 4.87475 11.8337 5.00095 12.0225L7.06154 15.1294H14.8977L16.8498 12.0363C16.9741 11.8396 16.9859 11.5919 16.8794 11.3834L11.6343 1.16221C11.6086 1.11305 11.5317 1.13074 11.5317 1.18777Z" fill="url(#paint0_linear_1810_6672)"/>
<path d="M14.3591 20.0002H7.50095C7.41814 20.0002 7.34912 19.9334 7.34912 19.8488V16.3133C7.34912 16.2307 7.41616 16.1619 7.50095 16.1619H14.3591C14.4419 16.1619 14.5109 16.2287 14.5109 16.3133V19.8508C14.5109 19.9334 14.4419 20.0002 14.3591 20.0002Z" fill="url(#paint1_linear_1810_6672)"/>
<path d="M1.37646 1.17993C1.37646 1.17993 3.88664 8.88419 10.8394 9.21454C17.7922 9.54489 20.3576 1.95075 20.3576 1.95075" stroke="url(#paint2_linear_1810_6672)" stroke-width="0.75" stroke-miterlimit="10"/>
<path d="M2.7845 2.08831L0.842226 2.82176C0.800817 2.83749 0.755465 2.81586 0.73969 2.77654L0.00615932 0.839657C-0.00961552 0.798363 0.0120749 0.753137 0.051512 0.737406L1.99379 0.00394765C2.0352 -0.0117833 2.08055 0.00984678 2.09633 0.0491743L2.83183 1.98605C2.8476 2.02931 2.82591 2.07454 2.7845 2.08831Z" fill="url(#paint3_linear_1810_6672)"/>
<path d="M21.1227 2.96929L19.2199 2.22403C19.1706 2.20437 19.1469 2.14931 19.1666 2.10015L19.9139 0.202598C19.9337 0.153438 19.9889 0.129842 20.0382 0.149505L21.941 0.894762C21.9903 0.914425 22.014 0.969484 21.9943 1.01864L21.2469 2.9162C21.2272 2.96339 21.172 2.98698 21.1227 2.96929Z" fill="url(#paint4_linear_1810_6672)"/>
</g>
<defs>
<linearGradient id="paint0_linear_1810_6672" x1="10.9234" y1="1.13354" x2="10.9234" y2="15.1294" gradientUnits="userSpaceOnUse">
<stop stop-color="#7863E6"/>
<stop offset="0.71" stop-color="#E29EB2"/>
</linearGradient>
<linearGradient id="paint1_linear_1810_6672" x1="10.93" y1="16.1619" x2="10.93" y2="20.0002" gradientUnits="userSpaceOnUse">
<stop stop-color="#C73EF2"/>
<stop offset="1" stop-color="#F3B4AA"/>
</linearGradient>
<linearGradient id="paint2_linear_1810_6672" x1="10.867" y1="1.17993" x2="10.867" y2="9.22501" gradientUnits="userSpaceOnUse">
<stop stop-color="#E6D6F7"/>
<stop offset="1" stop-color="#FDAED3"/>
</linearGradient>
<linearGradient id="paint3_linear_1810_6672" x1="1.41898" y1="-0.0012207" x2="1.41898" y2="2.82693" gradientUnits="userSpaceOnUse">
<stop stop-color="#FCE724"/>
<stop offset="1" stop-color="#FDB411"/>
</linearGradient>
<linearGradient id="paint4_linear_1810_6672" x1="19.5976" y1="0.142578" x2="22.4297" y2="2.92529" gradientUnits="userSpaceOnUse">
<stop offset="0.0339999" stop-color="#CA69EA"/>
<stop offset="0.439" stop-color="#AD8AF8"/>
<stop offset="1" stop-color="#7719AB"/>
</linearGradient>
<clipPath id="clip0_1810_6672">
<rect width="22" height="20" fill="white"/>
</clipPath>
</defs>
</svg>
