<svg width="31" height="31" viewBox="0 0 31 31" fill="none" xmlns="http://www.w3.org/2000/svg">
<path d="M16.6717 18.5252L16.3412 17.759L8.70584 23.4234C7.84062 24.4255 7.22361 25.3158 6.83305 25.933L6.69848 26.1456L6.29734 26.7794C6.49972 26.9448 6.70666 27.1048 6.91793 27.2593L7.41174 26.5843L7.41297 26.5826L7.41174 26.5819V25.6383H7.41352H7.72181L7.92792 25.7891C8.61039 24.7981 9.70792 23.4022 11.2514 22.0177C12.6736 20.7414 14.4715 19.474 16.6717 18.5252ZM16.6717 18.5252L16.3412 17.7589L29.9214 17.4996C29.4788 20.7189 27.9826 23.6055 25.7933 25.7934L25.7931 25.7936L25.2054 25.2059L25.8726 24.5387L25.8708 24.5369L25.8497 24.5158C27.5631 22.5503 28.7214 20.0957 29.0931 17.386C27.4767 17.0834 25.9637 16.9481 24.5503 16.9481C23.456 16.9481 22.4205 17.0291 21.4415 17.1759C21.4273 17.1322 21.4131 17.0886 21.3988 17.0452L20.5024 17.3397L20.687 18.265C20.7196 18.2585 20.7522 18.2521 20.785 18.2458C21.5169 20.7245 21.9936 23.4736 22.0507 26.4762C21.9022 26.5652 21.7517 26.6512 21.5994 26.7342L21.79 27.0838L22.0511 27.5627L22.9946 27.5732C22.9951 27.5269 22.9958 27.4772 22.9966 27.4256C22.9982 27.3151 23 27.196 23 27.0838C23 27.0542 22.9999 27.0245 22.9999 26.9949C23.7953 26.4745 24.5337 25.874 25.2036 25.2041L24.5364 25.8713L24.5382 25.8731L25.1045 26.4394C24.2947 27.1512 23.4046 27.7745 22.4498 28.294C22.0104 28.533 21.5574 28.7501 21.0921 28.9438M16.6717 18.5252C17.3321 18.2404 18.0317 17.9859 18.7668 17.7669C19.6818 20.5065 20.2728 23.6145 20.2746 27.0821C20.2746 27.3104 20.2722 27.5405 20.2671 27.772L20.2718 27.7841L20.29 27.3391L20.5072 27.3479L20.6652 28.2982M20.7927 29.0645L20.8102 29.1703C19.165 29.8094 17.376 30.1653 15.5022 30.1653C15.5016 30.1653 15.501 30.1653 15.5004 30.1653C15.5003 30.1653 15.5002 30.1653 15.5001 30.1653C12.3779 30.1648 9.48721 29.1876 7.11085 27.5254H5.72854L6.14788 26.8398L30.1636 15.5728L30.1635 15.5754L30.1631 15.5938C30.163 15.5974 30.163 15.5989 30.163 15.5989V16.728L30.1364 16.7232L30.0279 17.5142C29.5825 20.761 28.0806 23.665 25.8728 25.8729C25.8727 25.8729 25.8726 25.873 25.8726 25.8731L25.8724 25.8732L25.2054 26.5403L25.1822 26.5171C24.3644 27.2364 23.4662 27.8658 22.5027 28.3911L21.0897 29.1615L21.0921 28.9438M20.7927 29.0645C20.893 29.0254 20.9928 28.9851 21.0921 28.9438M20.7927 29.0645C20.7859 29.0672 20.7791 29.0698 20.7723 29.0725C20.6593 29.1164 20.5456 29.1589 20.4313 29.2L20.4686 28.2907L20.4685 28.2904L20.4686 28.2904L20.6652 28.2982M20.7927 29.0645L20.6652 28.2982M21.0921 28.9438L21.0991 28.3154L20.6652 28.2982M8.67489 2.63938C8.78684 2.57987 8.89966 2.52177 9.01333 2.46512L9.44875 2.83433L9.17474 3.2149L8.67489 2.63938ZM20.2128 29.2246L20.347 29.2301C18.831 29.7651 17.2 30.0562 15.5022 30.0564C15.5016 30.0564 15.501 30.0564 15.5004 30.0564H15.5C12.4581 30.0577 9.63062 29.123 7.29421 27.5254H7.41174H7.41352V26.5829L7.42264 26.5885C9.68882 28.2435 12.4783 29.2217 15.5022 29.2217C16.8177 29.2217 18.0882 29.0343 19.291 28.6881L19.2713 29.186L20.2128 29.2246Z" fill="#626366" fill-opacity="0.7" stroke="url(#paint0_linear_1812_11336)" stroke-width="1.88713"/>
<defs>
<linearGradient id="paint0_linear_1812_11336" x1="15.5004" y1="0" x2="15.5004" y2="31" gradientUnits="userSpaceOnUse">
<stop stop-color="#8E0E0D"/>
<stop offset="1" stop-color="#BB5695"/>
</linearGradient>
</defs>
</svg>
