<svg width="20" height="20" viewBox="0 0 20 20" fill="none" xmlns="http://www.w3.org/2000/svg">
<path d="M9.92411 7.48975C9.06518 7.48975 8.30037 7.83358 7.73559 8.39575C7.17343 8.96053 6.82959 9.72533 6.82959 10.5843C6.82959 11.4432 7.17343 12.208 7.73559 12.7728C8.30037 13.335 9.06518 13.6788 9.92411 13.6788C10.783 13.6788 11.5479 13.335 12.1126 12.7728C12.6748 12.208 13.0186 11.4432 13.0186 10.5843C13.0186 9.72533 12.6748 8.96053 12.1126 8.39575C11.5479 7.83358 10.783 7.48975 9.92542 7.48975H9.92411Z" fill="url(#paint0_linear_1812_11334)"/>
<path d="M19.9974 4.77317C19.9909 3.46058 19.4535 2.26566 18.5933 1.40541C17.7278 0.538633 16.5224 0 15.2007 0H4.79801C3.47627 0 2.27089 0.538633 1.40541 1.40541C0.541247 2.26827 0.00392208 3.46842 0 4.78494C0 4.78494 0 4.78886 0 4.7954V4.79671V15.2007C0 15.2007 0 15.2007 0 15.2033C0 16.5237 0.538633 17.7291 1.40541 18.5946C2.27089 19.4614 3.47627 20 4.79801 20H15.202C16.5237 20 17.7291 19.4614 18.5946 18.5946C19.4431 17.7474 19.9752 16.5747 19.9974 15.2857L20 15.2791V4.77317H19.9974ZM15.3197 10.6602L15.317 10.6668C15.2948 12.1205 14.6947 13.4436 13.7377 14.3993C12.7638 15.3746 11.408 15.9799 9.92156 15.9799C8.43378 15.9799 7.07805 15.3746 6.10407 14.3993C5.1327 13.4292 4.52739 12.08 4.52347 10.5988V10.5896V10.5831V10.5805V10.5687C4.52608 9.08615 5.13139 7.73565 6.10407 6.76559C7.07805 5.7903 8.43378 5.18499 9.92156 5.18499C11.4093 5.18499 12.7638 5.7903 13.7377 6.76559C14.7078 7.73435 15.3118 9.07961 15.3183 10.5582V10.5752V10.5818V10.6589L15.3197 10.6602ZM16.2557 5.75892C16.0165 5.99817 15.6818 6.1472 15.317 6.1472C14.9523 6.1472 14.6176 5.99817 14.3784 5.75892C14.1391 5.51968 13.9888 5.18499 13.9901 4.82024C13.9901 4.45548 14.1391 4.1208 14.3784 3.88155C14.6176 3.64231 14.9523 3.49196 15.317 3.49326C15.6818 3.49326 16.0165 3.64231 16.2557 3.88155C16.495 4.1208 16.644 4.45548 16.644 4.82024C16.644 5.18499 16.495 5.51968 16.2557 5.75892Z" fill="url(#paint1_linear_1812_11334)"/>
<defs>
<linearGradient id="paint0_linear_1812_11334" x1="9.92411" y1="7.48975" x2="9.92411" y2="13.6788" gradientUnits="userSpaceOnUse">
<stop stop-color="#C73EF2"/>
<stop offset="1" stop-color="#F3B4AA"/>
</linearGradient>
<linearGradient id="paint1_linear_1812_11334" x1="10" y1="0" x2="10" y2="20" gradientUnits="userSpaceOnUse">
<stop stop-color="#C73EF2"/>
<stop offset="1" stop-color="#F3B4AA"/>
</linearGradient>
</defs>
</svg>
