<svg width="21" height="20" viewBox="0 0 21 20" fill="none" xmlns="http://www.w3.org/2000/svg">
<path d="M15.6809 0H5.31913C2.38157 0 0 2.26816 0 5.06584V14.9342C0 17.7318 2.38157 20 5.31913 20H15.6809C18.6184 20 21 17.7318 21 14.9342V5.06584C20.9985 2.26816 18.6184 0 15.6809 0ZM5.28196 4.66657C6.20367 4.52216 6.9886 5.27113 6.83697 6.14753C6.7448 6.67847 6.29584 7.10746 5.73687 7.19524C4.81516 7.33966 4.03023 6.59068 4.18186 5.71429C4.27403 5.18335 4.72448 4.75435 5.28196 4.66657ZM6.96184 14.9724H4.32755V7.99802H6.96333V14.9724H6.96184ZM17.2389 14.9724H14.5912V11.1383C14.5912 10.6994 14.5109 10.3908 14.3518 10.2095C14.1913 10.0269 13.9668 9.9377 13.6784 9.9377C13.3588 9.9377 13.1001 10.0595 12.9009 10.3044C12.7017 10.5493 12.6036 10.9897 12.6036 11.624V14.9738H9.97076V7.99802H12.4237V9.13351C12.7894 8.67054 13.1611 8.33923 13.5372 8.1396C13.9133 7.93997 14.3697 7.84086 14.9093 7.84086C15.6392 7.84086 16.2101 8.06173 16.6219 8.50064C17.0352 8.94238 17.2418 9.62056 17.2418 10.5408V14.9724H17.2389Z" fill="url(#paint0_linear_1812_6959)"/>
<defs>
<linearGradient id="paint0_linear_1812_6959" x1="10.0458" y1="10.9906" x2="13.2814" y2="21.3297" gradientUnits="userSpaceOnUse">
<stop stop-color="#8873FE"/>
<stop offset="1" stop-color="#73A2FE" stop-opacity="0.94"/>
</linearGradient>
</defs>
</svg>
