<svg width="1920" height="301" viewBox="0 0 1920 301" fill="none" xmlns="http://www.w3.org/2000/svg">
<g clip-path="url(#clip0_1810_6022)">
<rect y="-13" width="1920" height="314" fill="#1D1D1E"/>
<path d="M1150.64 88.0828C1151.55 88.5132 1152.39 88.6434 1153.18 88.4733C1153.98 88.2975 1154.68 87.8561 1155.28 87.1492C1155.87 86.4422 1156.66 85.1221 1157.66 83.1888C1158.65 81.2555 1159.34 79.9959 1159.71 79.4099C1160.3 78.4875 1160.89 77.8009 1161.47 77.3501C1162.06 76.9052 1162.66 76.6146 1163.25 76.4783C1163.85 76.3304 1164.52 76.3285 1165.27 76.4727C1165.77 76.5804 1166.52 76.8876 1167.52 77.3943L1168.49 77.8891L1167.11 80.6237L1166.57 80.3498C1165.36 79.7371 1164.44 79.5512 1163.83 79.7922C1163.21 80.0215 1162.52 80.8909 1161.76 82.4005C1160.21 85.4428 1159.18 87.3321 1158.64 88.0686C1157.8 89.205 1156.96 89.9803 1156.1 90.3946C1155.26 90.8148 1154.17 91.0122 1152.82 90.9868C1153.83 92.169 1154.34 93.456 1154.35 94.8478C1154.37 96.2339 1153.75 98.1752 1152.49 100.672C1151.34 102.936 1150.68 104.295 1150.51 104.748C1150.2 105.585 1150.15 106.254 1150.36 106.756C1150.59 107.264 1151.25 107.798 1152.36 108.358L1152.9 108.632L1151.51 111.366L1150.53 110.871C1149.39 110.294 1148.62 109.783 1148.2 109.338C1147.59 108.694 1147.2 107.946 1147.02 107.095C1146.83 106.255 1146.89 105.338 1147.21 104.344C1147.53 103.356 1148.22 101.814 1149.27 99.7183C1150.32 97.6222 1150.95 96.1265 1151.17 95.231C1151.4 94.3355 1151.34 93.5112 1151.01 92.7581C1150.68 92.0108 1150.08 91.3988 1149.2 90.9219L1150.64 88.0828ZM1155.93 104.719L1176.73 82.069L1179.24 83.3415L1158.46 106L1155.93 104.719ZM1177.77 89.0367L1179.83 86.9699C1181.35 88.5568 1182.4 89.8004 1183 90.7007C1183.84 88.487 1184.46 86.9824 1184.85 86.1869L1187.37 87.4683C1186.76 88.6002 1185.89 89.9723 1184.78 91.5846C1186.28 91.5876 1187.94 91.7254 1189.74 91.998L1189.29 94.8779C1187.56 94.6174 1185.95 94.209 1184.45 93.6529C1184.85 94.6277 1185.29 96.2316 1185.78 98.4648L1182.94 98.8849C1182.73 97.6258 1182.57 95.974 1182.45 93.9294C1180.76 95.1307 1179.38 95.9961 1178.29 96.5254L1176.98 94.0022C1179.17 93.025 1180.69 92.4167 1181.55 92.1771C1180.2 91.1269 1178.94 90.08 1177.77 89.0367ZM1191.67 96.0885L1193.73 94.0217C1195.25 95.6086 1196.3 96.8523 1196.9 97.7525C1197.74 95.5388 1198.36 94.0342 1198.75 93.2387L1201.27 94.5201C1200.65 95.652 1199.79 97.0241 1198.68 98.6365C1200.18 98.6394 1201.84 98.7772 1203.64 99.0498L1203.19 101.93C1201.46 101.669 1199.85 101.261 1198.35 100.705C1198.75 101.679 1199.19 103.283 1199.68 105.517L1196.84 105.937C1196.63 104.678 1196.47 103.026 1196.35 100.981C1194.66 102.183 1193.27 103.048 1192.19 103.577L1190.88 101.054C1193.07 100.077 1194.59 99.4685 1195.45 99.2289C1194.09 98.1787 1192.84 97.1319 1191.67 96.0885ZM1193.66 123.859L1214.46 101.21L1216.97 102.482L1196.18 125.141L1193.66 123.859ZM1220.12 123.333L1218.68 126.172C1217.77 125.742 1216.92 125.614 1216.11 125.79C1215.32 125.972 1214.63 126.416 1214.04 127.123C1213.45 127.819 1212.66 129.133 1211.66 131.066C1210.67 132.999 1209.98 134.259 1209.61 134.845C1209.01 135.779 1208.41 136.463 1207.83 136.896C1207.25 137.347 1206.66 137.64 1206.07 137.777C1205.47 137.925 1204.8 137.926 1204.05 137.782C1203.54 137.686 1202.79 137.385 1201.79 136.878L1200.82 136.383L1202.21 133.649L1202.75 133.923C1203.95 134.535 1204.87 134.721 1205.48 134.48C1206.1 134.251 1206.79 133.376 1207.56 131.854C1209.03 128.952 1210.02 127.138 1210.52 126.413C1211.36 125.218 1212.25 124.379 1213.2 123.895C1214.15 123.4 1215.25 123.197 1216.49 123.286C1215.48 121.969 1214.96 120.65 1214.95 119.328C1214.94 117.995 1215.56 116.08 1216.83 113.583C1217.98 111.319 1218.64 109.951 1218.8 109.481C1219.12 108.661 1219.16 108.004 1218.93 107.507C1218.72 107.005 1218.06 106.474 1216.96 105.915L1216.42 105.641L1217.8 102.906L1218.78 103.401C1219.92 103.978 1220.69 104.49 1221.11 104.935C1221.72 105.567 1222.12 106.309 1222.3 107.16C1222.48 108.012 1222.41 108.931 1222.09 109.919C1221.77 110.913 1221.09 112.458 1220.04 114.554C1218.99 116.65 1218.36 118.146 1218.14 119.041C1217.92 119.925 1217.97 120.741 1218.3 121.488C1218.63 122.241 1219.24 122.856 1220.12 123.333Z" fill="#FF5E87"/>
<g opacity="0.5" filter="url(#filter0_f_1810_6022)">
<path d="M4.00005 473.5C-2.52372 473.994 -7.11297 472.566 4.00005 466.064V-21.5H436.5V37L472.5 117.5C460.5 139.833 432.5 187.7 416.5 200.5C396.5 216.5 335.5 236 311 270C286.5 304 288.5 339.5 250.5 370.5C212.5 401.5 136 413 53.5001 444.5C26.6427 454.755 11.6251 461.604 4.00005 466.064V473.5Z" fill="url(#paint0_linear_1810_6022)"/>
</g>
<g opacity="0.5" filter="url(#filter1_f_1810_6022)">
<path d="M1386.5 198C1472.5 216 1488 253.5 1485 270L1462.5 283.5L1435.5 312.5C1419.17 323 1378.4 337.7 1346 312.5C1305.5 281 1281 287.5 1252 270C1223 252.5 1155.5 312.5 1149 332.5C1142.5 352.5 1111 359.5 1068.5 332.5C1026 305.5 1043.5 332.5 1028 344C1012.5 355.5 1028 422 1028 449C1028 476 969.5 536.5 889 536.5C808.5 536.5 831 500.5 768 471.5C721 482.5 732 473.5 671.5 449C611 424.5 647 411 649.5 344C652 277 676 328 696.5 312.5C717 297 730 296.5 768 270C806 243.5 815 249.5 889 225C963 200.5 999 249.5 1028 249.5C1057 249.5 1048 198 1068.5 171C1089 144 1142 164.5 1169 151C1196 137.5 1279 175.5 1386.5 198Z" fill="url(#paint1_linear_1810_6022)"/>
</g>
<g opacity="0.5" filter="url(#filter2_f_1810_6022)">
<path d="M1280 702C1254.4 702 1240 760.667 1236 790H1918V558L1904 528C1896 538 1870 558 1830 558C1780 558 1812 498 1738 488C1664 478 1736 528 1696 590C1656 652 1674 576 1558 528C1476 530 1520 564 1514 576C1508 588 1496 598 1474 622C1452 646 1430 636 1414 638C1398 640 1406 656 1398 702C1390 748 1312 702 1280 702Z" fill="url(#paint2_linear_1810_6022)"/>
<path d="M1280 702C1254.4 702 1240 760.667 1236 790H1918V558L1904 528C1896 538 1870 558 1830 558C1780 558 1812 498 1738 488C1664 478 1736 528 1696 590C1656 652 1674 576 1558 528C1476 530 1520 564 1514 576C1508 588 1496 598 1474 622C1452 646 1430 636 1414 638C1398 640 1406 656 1398 702C1390 748 1312 702 1280 702Z" stroke="#2E2E2E" stroke-width="2"/>
</g>
<path d="M1645.7 200.797C1646.89 197.24 1651.92 197.24 1653.12 200.797V200.797C1653.65 202.378 1655.12 203.45 1656.79 203.465V203.465C1660.54 203.498 1662.09 208.283 1659.08 210.515V210.515C1657.74 211.508 1657.17 213.241 1657.68 214.832V214.832C1658.8 218.41 1654.73 221.367 1651.68 219.189V219.189C1650.32 218.221 1648.5 218.221 1647.14 219.189V219.189C1644.09 221.367 1640.01 218.41 1641.14 214.832V214.832C1641.64 213.241 1641.08 211.508 1639.74 210.515V210.515C1636.72 208.283 1638.28 203.498 1642.03 203.465V203.465C1643.7 203.45 1645.17 202.378 1645.7 200.797V200.797Z" fill="url(#paint3_linear_1810_6022)"/>
<path d="M1644.53 201.969C1645.72 198.412 1650.75 198.412 1651.94 201.969V201.969C1652.47 203.55 1653.95 204.621 1655.62 204.636V204.636C1659.37 204.67 1660.92 209.455 1657.91 211.687V211.687C1656.57 212.679 1656 214.413 1656.5 216.003V216.003C1657.63 219.581 1653.56 222.538 1650.51 220.361V220.361C1649.15 219.393 1647.33 219.393 1645.97 220.361V220.361C1642.91 222.538 1638.84 219.581 1639.97 216.003V216.003C1640.47 214.413 1639.91 212.679 1638.57 211.687V211.687C1635.55 209.455 1637.11 204.67 1640.86 204.636V204.636C1642.53 204.621 1644 203.55 1644.53 201.969V201.969Z" fill="url(#paint4_linear_1810_6022)"/>
<path d="M236.767 254.168C237.423 253.666 238.329 253.563 239.148 253.676C239.293 253.696 239.436 253.723 239.573 253.76C240.051 253.895 240.425 254.22 240.785 254.497C244.711 257.556 248.64 260.627 252.569 263.698C254.692 265.359 254.598 265.976 251.994 267.991C250.482 269.163 248.953 270.34 247.42 271.505C245.592 272.882 244.315 273.026 242.828 271.881C238.602 268.617 234.421 265.326 230.224 262.04C230.036 261.904 229.89 261.729 229.747 261.565C229.018 260.753 229.067 259.994 230.109 259.167C232.284 257.458 234.519 255.822 236.767 254.168V254.168Z" fill="url(#paint5_linear_1810_6022)"/>
<path d="M1476.31 100.854C1475.98 101.303 1475.69 102.055 1475.13 102.083V102.083C1474.92 102.094 1474.73 102.011 1474.61 101.835C1474.11 101.121 1474.3 100.452 1475.12 99.8021C1475.47 99.533 1475.75 99.2509 1475.89 98.9415C1476.12 98.4394 1476.44 97.6828 1476.99 97.6486V97.6486C1477.22 97.6348 1477.42 97.7282 1477.54 97.9133C1478.2 98.893 1478.02 99.6676 1476.8 100.422C1476.58 100.565 1476.41 100.707 1476.31 100.854Z" fill="url(#paint6_linear_1810_6022)"/>
<path d="M336.256 245.974C336.237 246.062 336.145 246.125 336.06 246.094C335.939 246.051 335.816 246.005 335.696 245.963C335.626 245.938 335.582 245.868 335.595 245.796V245.796C335.61 245.716 335.69 245.669 335.768 245.69C335.894 245.724 336.018 245.761 336.144 245.795C336.224 245.816 336.273 245.893 336.256 245.974V245.974Z" fill="url(#paint7_linear_1810_6022)"/>
<path d="M293.612 227.28L266.637 246.863C266.145 247.222 265.823 247.707 265.891 248.153C266.176 249.949 264.852 252.065 262.106 253.294C260.242 254.125 258.036 254.239 256.444 253.591C253.161 252.263 253.324 248.834 256.351 246.668C257.788 245.641 259.557 245.118 261.205 245.114C261.651 245.111 262.111 244.995 262.478 244.732L290.064 225C290.289 224.839 290.129 224.596 289.844 224.683L247.755 237.183C246.914 237.434 246.225 237.975 245.949 238.612L241.368 249.07L259.471 263.432L273.281 260.357C274.159 260.162 274.931 259.651 275.312 259.007L293.926 227.412C294.014 227.26 293.784 227.157 293.612 227.28Z" fill="url(#paint8_linear_1810_6022)"/>
<path d="M1082.6 157.815L1082.37 155.292C1082.36 155.226 1082.44 155.171 1082.53 155.168L1086.15 155.014C1086.25 155.011 1086.33 155.06 1086.33 155.126L1086.57 157.649C1086.57 157.714 1086.5 157.769 1086.41 157.773L1082.78 157.926C1082.69 157.929 1082.61 157.879 1082.6 157.815Z" fill="url(#paint9_linear_1810_6022)"/>
<path d="M198.573 100.445C198.08 99.1495 200.142 97.747 200.398 99.0922V99.0922C200.698 100.709 201.858 101.605 203.967 102.193C204.901 102.474 205.752 103.411 205.92 104.162C206.25 105.462 206.959 106.326 208.715 106.665C210.391 106.997 211.231 107.861 211.357 109.023C211.51 110.365 212.408 111.093 214.152 111.526V111.526C215.818 111.924 214.445 113.165 212.804 112.727C211.103 112.272 209.91 111.339 209.572 110.031C209.269 108.911 208.702 108.121 207.112 107.834C205.196 107.479 204.442 106.492 204.009 105.206C203.744 104.504 203.15 103.534 202.363 103.361C200.016 102.861 199.081 101.783 198.573 100.445Z" fill="url(#paint10_linear_1810_6022)"/>
<path d="M554.723 172.484C549.234 168.299 551.4 159.511 558.219 158.441V158.441C564.319 157.484 569.059 163.653 566.637 169.334V169.334C564.635 174.028 558.781 175.579 554.723 172.484V172.484Z" fill="#DC6380"/>
<path d="M620.16 150.62L626.932 151.609L622.312 155.183L620.16 150.62Z" fill="url(#paint11_linear_1810_6022)"/>
<path d="M392.551 23.5093C388.061 21.1123 389.023 14.6304 393.183 17.563V17.563C398.363 21.2404 403.769 21.9926 410.751 20.739C413.904 20.2375 418.634 21.4911 421.112 23.1626C425.504 26.0043 429.671 27.258 435.076 25.8372C440.256 24.4999 444.761 25.5865 448.252 28.3445C452.306 31.5204 456.586 32.189 462.217 31.0189V31.0189C467.035 29.9759 466.928 34.8544 462.085 35.7789C456.494 36.8461 450.889 36.047 446.45 33.192C442.621 30.7683 439.018 29.5145 434.175 30.8517C428.319 32.4397 423.702 30.9353 419.085 28.2608C416.494 26.84 412.328 25.1686 409.85 25.7536C402.661 27.4969 397.407 26.1016 392.551 23.5093Z" fill="#63A9DC"/>
<path d="M1350.73 61.2874L1348.49 63.1427L1344.78 66.2266L1319.23 87.4178L1313.61 89.0575L1313.44 88.3122C1313.24 88.3674 1312.54 88.1524 1312.59 88.017L1312 87.9393L1313.55 84.2787L1340.59 61.6635L1342.13 60.3797L1345.06 57.9327C1345.8 57.3159 1346.85 57 1347.9 57C1348.85 57 1349.79 57.2557 1350.53 57.7672C1351.89 58.72 1351.98 60.2544 1350.73 61.2874Z" fill="url(#paint12_linear_1810_6022)"/>
<path d="M1235.11 222.232L1232.87 224.087L1226.98 220.938L1229.43 218.872C1230.17 218.255 1231.22 217.939 1232.27 217.939C1233.22 217.939 1234.16 218.195 1234.9 218.707C1236.27 219.664 1236.36 221.199 1235.11 222.232Z" fill="url(#paint13_linear_1810_6022)"/>
<path d="M1197.99 249.997L1196.11 250.544C1195.91 250.599 1195.71 250.473 1195.77 250.338L1196.38 248.879C1196.85 249.215 1197.43 249.616 1197.99 249.997Z" fill="url(#paint14_linear_1810_6022)"/>
<circle cx="1255.6" cy="103.742" r="6.53696" fill="url(#paint15_linear_1810_6022)"/>
<ellipse cx="1790" cy="111.5" rx="14" ry="14.5" fill="#FF5E87"/>
<ellipse cx="122.5" cy="81.5" rx="21.5" ry="22.5" fill="#7D1BFD"/>
<ellipse cx="908.5" cy="61.5" rx="21.5" ry="20.5" fill="#FEC961"/>
<ellipse cx="1361.5" cy="245" rx="9.5" ry="10" fill="#01EAAF"/>
<path d="M564.871 266.68L543.367 257.617V255.273L564.871 246.23V249.043L546.863 256.426L564.871 263.848V266.68ZM577.371 241.113L568.777 270H566.258L574.871 241.113H577.371ZM578.758 246.23L600.262 255.293V257.637L578.758 266.68V263.867L596.766 256.465L578.758 249.043V246.23Z" fill="#6D6BEB"/>
<path d="M578.881 57.9916L585.119 56.1103L585.457 57.2322L582.809 58.0308C582.39 58.1571 582.116 58.3651 581.985 58.6546C581.852 58.9342 581.862 59.3282 582.016 59.8369L588.846 82.4855C589.012 83.034 589.24 83.3948 589.532 83.568C589.826 83.7512 590.163 83.7856 590.542 83.6713L593.19 82.8727L593.528 83.9947L587.29 85.8761L578.881 57.9916ZM595.405 58.0184C597.349 57.4319 599.199 57.701 600.952 58.8259C603.12 60.2066 604.776 62.7918 605.919 66.5815C606.981 70.102 607.092 72.9953 606.252 75.2614C605.409 77.5175 604 78.9433 602.026 79.5389C600.121 80.1133 598.297 79.8202 596.554 78.6594C594.372 77.1959 592.728 74.6291 591.621 70.9591C590.568 67.4685 590.483 64.464 591.367 61.9454C592.074 59.9259 593.42 58.6169 595.405 58.0184ZM595.819 59.0684C594.503 59.4654 593.667 60.4085 593.311 61.8976C592.952 63.3768 593.371 66.101 594.568 70.0703C595.738 73.9498 596.897 76.4234 598.046 77.4913C599.205 78.5562 600.428 78.8947 601.714 78.5067C603.011 78.1156 603.828 77.2165 604.165 75.8092C604.562 74.1334 604.191 71.4056 603.051 67.6259C601.872 63.7165 600.694 61.2159 599.516 60.1241C598.338 59.0323 597.106 58.6804 595.819 59.0684ZM614.375 81.0369L613.62 80.4812C615.102 78.4347 615.677 76.8579 615.343 75.7509C615.295 75.5914 615.229 75.4807 615.145 75.419C615.074 75.3642 614.984 75.3534 614.874 75.3865L614.563 75.5456C614.382 75.6326 614.232 75.6942 614.113 75.7303C613.664 75.8656 613.217 75.8099 612.773 75.5631C612.339 75.3133 612.046 74.9391 611.896 74.4405C611.748 73.9518 611.793 73.4868 612.03 73.0454C612.267 72.6041 612.649 72.3037 613.178 72.1443C613.836 71.9458 614.463 72.0397 615.058 72.4259C615.65 72.8022 616.08 73.4341 616.348 74.3217C616.935 76.2664 616.277 78.5048 614.375 81.0369ZM622.943 50.1374L628.573 68.8068C628.657 69.0861 628.822 69.2704 629.066 69.3598C629.419 69.482 629.804 69.48 630.223 69.3537L633.125 68.4784L633.464 69.6003L622.708 72.8442L622.37 71.7223L624.853 70.9733C625.371 70.8169 625.719 70.5815 625.896 70.2669C626.071 69.9424 626.096 69.5757 625.973 69.1668L621.718 55.06C621.631 54.7708 621.442 54.5611 621.153 54.4308C620.863 54.3005 620.539 54.2895 620.18 54.3978L616.859 55.3994L616.548 54.3672C618.043 53.6985 619.225 53.0537 620.093 52.4329C620.959 51.802 621.679 51.1061 622.254 50.3449L622.943 50.1374ZM639.955 73.3219L639.2 72.7663C640.683 70.7197 641.257 69.143 640.924 68.036C640.875 67.8764 640.809 67.7657 640.726 67.704C640.655 67.6492 640.564 67.6384 640.455 67.6715L640.144 67.8306C639.963 67.9176 639.813 67.9792 639.693 68.0153C639.245 68.1507 638.798 68.0949 638.354 67.8482C637.919 67.5984 637.627 67.2241 637.476 66.7255C637.329 66.2368 637.374 65.7718 637.611 65.3305C637.847 64.8891 638.23 64.5887 638.759 64.4293C639.417 64.2308 640.044 64.3247 640.639 64.7109C641.231 65.0872 641.661 65.7191 641.929 66.6067C642.515 68.5515 641.857 70.7898 639.955 73.3219ZM646.566 42.5884C648.511 42.0019 650.36 42.2711 652.114 43.396C654.282 44.7767 655.937 47.3619 657.08 51.1516C658.142 54.6721 658.253 57.5653 657.413 59.8314C656.57 62.0875 655.162 63.5134 653.187 64.1089C651.282 64.6834 649.458 64.3902 647.716 63.2294C645.533 61.7659 643.889 59.1992 642.782 55.5291C641.729 52.0386 641.645 49.034 642.528 46.5154C643.235 44.496 644.581 43.187 646.566 42.5884ZM646.981 43.6384C645.664 44.0355 644.828 44.9785 644.472 46.4677C644.113 47.9469 644.532 50.6711 645.729 54.6403C646.899 58.5198 648.059 60.9935 649.207 62.0614C650.366 63.1263 651.589 63.4647 652.876 63.0767C654.172 62.6857 654.989 61.7865 655.326 60.3792C655.724 58.7034 655.353 55.9757 654.213 52.1959C653.034 48.2865 651.855 45.7859 650.677 44.6941C649.499 43.6023 648.267 43.2504 646.981 43.6384ZM665.536 65.6069L664.781 65.0513C666.264 63.0048 666.838 61.428 666.504 60.321C666.456 60.1614 666.39 60.0508 666.306 59.989C666.235 59.9343 666.145 59.9234 666.035 59.9565L665.724 60.1156C665.544 60.2027 665.394 60.2642 665.274 60.3003C664.825 60.4357 664.379 60.38 663.934 60.1332C663.5 59.8834 663.208 59.5092 663.057 59.0105C662.91 58.5218 662.954 58.0568 663.191 57.6155C663.428 57.1741 663.811 56.8738 664.339 56.7143C664.998 56.5158 665.624 56.6097 666.219 56.9959C666.812 57.3722 667.242 58.0042 667.509 58.8918C668.096 60.8365 667.438 63.0749 665.536 65.6069ZM672.147 34.8734C674.091 34.2869 675.941 34.5561 677.694 35.681C679.862 37.0617 681.518 39.6469 682.661 43.4366C683.723 46.9571 683.834 49.8503 682.994 52.1164C682.151 54.3726 680.742 55.7984 678.768 56.3939C676.863 56.9684 675.039 56.6753 673.296 55.5144C671.114 54.051 669.47 51.4842 668.363 47.8141C667.31 44.3236 667.225 41.319 668.109 38.8005C668.816 36.781 670.162 35.472 672.147 34.8734ZM672.561 35.9235C671.245 36.3205 670.409 37.2636 670.053 38.7527C669.694 40.2319 670.113 42.9561 671.31 46.9253C672.48 50.8048 673.639 53.2785 674.788 54.3464C675.947 55.4113 677.17 55.7497 678.456 55.3617C679.753 54.9707 680.57 54.0716 680.907 52.6643C681.304 50.9885 680.933 48.2607 679.793 44.4809C678.614 40.5715 677.436 38.0709 676.258 36.9791C675.08 35.8873 673.848 35.5354 672.561 35.9235ZM694.25 53.6175L688.012 55.4989L687.674 54.377L690.322 53.5784C690.741 53.4521 691.015 53.2441 691.146 52.9546C691.279 52.675 691.269 52.2809 691.115 51.7723L684.285 29.1237C684.119 28.5752 683.891 28.2143 683.599 28.0412C683.315 27.855 682.978 27.8206 682.589 27.9379L679.941 28.7364L679.603 27.6145L685.841 25.7331L694.25 53.6175Z" fill="#28DAE6"/>
<rect x="1387" y="97" width="343" height="134" rx="67" fill="#D9D9D9"/>
<g filter="url(#filter3_d_1810_6022)">
<path d="M744.412 98.274C745.661 98.274 746.674 97.2819 746.674 96.0581C746.674 94.8342 745.661 93.8421 744.412 93.8421C743.163 93.8421 742.151 94.8342 742.151 96.0581C742.151 97.2819 743.163 98.274 744.412 98.274Z" fill="url(#paint16_linear_1810_6022)"/>
<path d="M756.696 89.0926C757.227 89.0926 757.657 88.6712 757.657 88.1515C757.657 87.6318 757.227 87.2105 756.696 87.2105C756.166 87.2105 755.736 87.6318 755.736 88.1515C755.736 88.6712 756.166 89.0926 756.696 89.0926Z" fill="url(#paint17_linear_1810_6022)"/>
<path d="M781.466 73.9809C781.466 73.9809 784.288 69.9861 786.631 72.9318C788.72 75.5647 787.969 76.3717 785.799 78.7424" fill="url(#paint18_linear_1810_6022)"/>
<path d="M747.016 106.032L780.712 74.3008L785.307 79.3297L750.465 110.768L747.016 106.032Z" fill="url(#paint19_linear_1810_6022)"/>
<path d="M747.016 106.032L744.517 111.699L745.374 112.883L750.465 110.768L747.016 106.032Z" fill="url(#paint20_linear_1810_6022)"/>
<path d="M745.547 112.269L745.09 111.638L747.123 107.029L749.688 110.55L745.547 112.269Z" stroke="#407CC2" stroke-opacity="0.1"/>
<path d="M744.517 111.699L743.66 113.47L745.374 112.883L744.517 111.699Z" fill="url(#paint21_linear_1810_6022)"/>
<path d="M780.712 76.3751L749.381 106.407" stroke="url(#paint22_linear_1810_6022)" stroke-width="0.25" stroke-miterlimit="10"/>
<path d="M781.776 77.9738L750.187 107.904" stroke="url(#paint23_linear_1810_6022)" stroke-width="0.25" stroke-miterlimit="10"/>
<path d="M782.891 79.3297L751.064 108.997" stroke="url(#paint24_linear_1810_6022)" stroke-width="0.25" stroke-miterlimit="10"/>
<path d="M758.171 76.5559L761.873 78.4042L758.427 80.6039L754.987 82.7999L754.728 78.7455L754.466 74.7012L758.171 76.5559Z" fill="url(#paint25_linear_1810_6022)"/>
<path d="M758.171 76.5559L758.165 76.5596L761.85 78.4089L758.42 80.5912L754.993 82.7799L754.738 78.7483L754.484 74.7168L758.165 76.5596L758.171 76.5559L758.181 76.5422L754.454 74.6821L754.715 78.7529L754.976 82.8237L758.435 80.6167L761.9 78.4061L758.181 76.5422L758.171 76.5559Z" fill="url(#paint26_linear_1810_6022)"/>
<path d="M771.585 93.1053H767.057V97.5263H771.585V93.1053Z" fill="url(#paint27_linear_1810_6022)"/>
<path d="M777.017 96.0526L778.69 99.3816L782.438 99.9078L779.722 102.508L780.363 106.161L777.017 104.441L773.661 106.161L774.301 102.508L771.585 99.9078L775.334 99.3816L777.017 96.0526Z" fill="url(#paint28_linear_1810_6022)"/>
</g>
<path d="M1436.95 171.734V160.156H1466.86V187.531C1463.95 190.344 1459.73 192.828 1454.2 194.984C1448.7 197.109 1443.12 198.172 1437.47 198.172C1430.28 198.172 1424.02 196.672 1418.67 193.672C1413.33 190.641 1409.31 186.328 1406.62 180.734C1403.94 175.109 1402.59 169 1402.59 162.406C1402.59 155.25 1404.09 148.891 1407.09 143.328C1410.09 137.766 1414.48 133.5 1420.27 130.531C1424.67 128.25 1430.16 127.109 1436.72 127.109C1445.25 127.109 1451.91 128.906 1456.69 132.5C1461.5 136.062 1464.59 141 1465.97 147.312L1452.19 149.891C1451.22 146.516 1449.39 143.859 1446.7 141.922C1444.05 139.953 1440.72 138.969 1436.72 138.969C1430.66 138.969 1425.83 140.891 1422.23 144.734C1418.67 148.578 1416.89 154.281 1416.89 161.844C1416.89 170 1418.7 176.125 1422.33 180.219C1425.95 184.281 1430.7 186.312 1436.58 186.312C1439.48 186.312 1442.39 185.75 1445.3 184.625C1448.23 183.469 1450.75 182.078 1452.84 180.453V171.734H1436.95ZM1479.61 140.469V128.281H1492.78V140.469H1479.61ZM1479.61 197V147.219H1492.78V197H1479.61ZM1529.16 147.219V157.719H1520.16V177.781C1520.16 181.844 1520.23 184.219 1520.39 184.906C1520.58 185.562 1520.97 186.109 1521.56 186.547C1522.19 186.984 1522.94 187.203 1523.81 187.203C1525.03 187.203 1526.8 186.781 1529.11 185.938L1530.23 196.156C1527.17 197.469 1523.7 198.125 1519.83 198.125C1517.45 198.125 1515.31 197.734 1513.41 196.953C1511.5 196.141 1510.09 195.109 1509.19 193.859C1508.31 192.578 1507.7 190.859 1507.36 188.703C1507.08 187.172 1506.94 184.078 1506.94 179.422V157.719H1500.89V147.219H1506.94V137.328L1520.16 129.641V147.219H1529.16ZM1538.44 197V128.281H1552.31V155.328H1579.5V128.281H1593.38V197H1579.5V166.953H1552.31V197H1538.44ZM1640.44 197V189.547C1638.62 192.203 1636.23 194.297 1633.27 195.828C1630.33 197.359 1627.22 198.125 1623.94 198.125C1620.59 198.125 1617.59 197.391 1614.94 195.922C1612.28 194.453 1610.36 192.391 1609.17 189.734C1607.98 187.078 1607.39 183.406 1607.39 178.719V147.219H1620.56V170.094C1620.56 177.094 1620.8 181.391 1621.27 182.984C1621.77 184.547 1622.66 185.797 1623.94 186.734C1625.22 187.641 1626.84 188.094 1628.81 188.094C1631.06 188.094 1633.08 187.484 1634.86 186.266C1636.64 185.016 1637.86 183.484 1638.52 181.672C1639.17 179.828 1639.5 175.344 1639.5 168.219V147.219H1652.67V197H1640.44ZM1665.8 197V128.281H1678.97V153.031C1683.03 148.406 1687.84 146.094 1693.41 146.094C1699.47 146.094 1704.48 148.297 1708.45 152.703C1712.42 157.078 1714.41 163.375 1714.41 171.594C1714.41 180.094 1712.38 186.641 1708.31 191.234C1704.28 195.828 1699.38 198.125 1693.59 198.125C1690.75 198.125 1687.94 197.422 1685.16 196.016C1682.41 194.578 1680.03 192.469 1678.03 189.688V197H1665.8ZM1678.88 171.031C1678.88 176.188 1679.69 180 1681.31 182.469C1683.59 185.969 1686.62 187.719 1690.41 187.719C1693.31 187.719 1695.78 186.484 1697.81 184.016C1699.88 181.516 1700.91 177.594 1700.91 172.25C1700.91 166.562 1699.88 162.469 1697.81 159.969C1695.75 157.438 1693.11 156.172 1689.89 156.172C1686.73 156.172 1684.11 157.406 1682.02 159.875C1679.92 162.312 1678.88 166.031 1678.88 171.031Z" fill="#2C2727"/>
<path d="M1838.84 268.515C1857.28 268.515 1872.22 253.597 1872.22 235.195C1872.22 216.792 1857.28 201.874 1838.84 201.874C1820.41 201.874 1805.46 216.792 1805.46 235.195C1805.46 253.597 1820.41 268.515 1838.84 268.515Z" fill="url(#paint29_linear_1810_6022)"/>
<path d="M1801.67 246.038C1801.67 246.038 1790.89 253.786 1794.34 259.381C1796.31 262.579 1812.22 258.714 1825.5 254C1835.45 250.466 1843.92 246.038 1843.92 246.038L1848.5 239.5C1848.5 239.5 1821.5 251.5 1807.7 252.925C1793.91 254.35 1801.67 246.038 1801.67 246.038Z" fill="url(#paint30_linear_1810_6022)"/>
<path d="M1843.92 246.039C1843.92 246.039 1871.52 237.43 1881.87 218.062C1881.87 218.062 1887.47 212.467 1866.34 215.48C1866.34 215.48 1876.69 215.48 1874.54 218.923C1872.38 222.366 1864.75 230.531 1847.5 240L1843.92 246.039Z" fill="url(#paint31_linear_1810_6022)"/>
<path d="M974.717 228.152C973.794 224.516 978.025 221.794 980.952 224.141V224.141C982.253 225.184 984.072 225.287 985.483 224.397V224.397C988.655 222.396 992.552 225.579 991.224 229.087V229.087C990.634 230.647 991.098 232.409 992.38 233.476V233.476C995.264 235.875 993.441 240.564 989.694 240.386V240.386C988.028 240.307 986.496 241.293 985.877 242.841V242.841C984.487 246.325 979.464 246.041 978.476 242.422V242.422C978.036 240.813 976.625 239.66 974.961 239.551V239.551C971.218 239.305 969.936 234.44 973.072 232.382V232.382C974.467 231.467 975.127 229.768 974.717 228.152V228.152Z" fill="url(#paint32_linear_1810_6022)"/>
<g clip-path="url(#clip1_1810_6022)">
<path d="M1589.58 59.8561C1588.35 63.7187 1586.1 66.8559 1582.72 69.1231C1580.21 70.8095 1577.42 71.822 1574.48 72.451C1572.95 72.7799 1571.4 73.0103 1569.81 73.2931C1570.87 74.3003 1571.6 75.5046 1572.09 76.8653C1572.69 78.5678 1572.89 80.3336 1572.89 82.1293C1572.87 86.2715 1572.84 90.4137 1572.82 94.557C1572.81 95.8138 1573.39 96.687 1574.33 96.9999H1548.15C1549.11 96.6753 1549.69 95.7313 1549.68 94.3213C1549.66 91.7327 1549.63 89.143 1549.61 86.5544C1549.61 86.4012 1549.59 86.249 1549.58 86.0808C1549.44 86.098 1549.36 86.1076 1549.27 86.1226C1546.35 86.6176 1543.42 86.8673 1540.5 86.1644C1537.51 85.4454 1535.25 83.8147 1534.08 80.8586C1533.33 78.9718 1532.32 77.2253 1531.02 75.6814C1530.4 74.9464 1529.58 74.3785 1528.85 73.7453C1528.38 73.3413 1527.84 73.0049 1527.42 72.5538C1526.69 71.7674 1526.92 71.1663 1527.99 70.9649C1529.75 70.6306 1531.36 71.0367 1532.84 72.0267C1534.38 73.0542 1535.54 74.4364 1536.5 76.0017C1537.27 77.2435 1538.2 78.3386 1539.41 79.1582C1542.72 81.3922 1546.15 81.0375 1549.62 79.6093C1549.73 79.56 1549.86 79.3907 1549.88 79.2611C1550.24 76.9885 1551.04 74.9346 1552.8 73.2353C1549.87 72.8849 1547.08 72.3652 1544.4 71.3892C1539.05 69.4391 1535.22 65.9098 1533.24 60.4658C1532.17 57.5182 1531.78 54.4539 1531.66 51.3328C1531.45 46.2284 1532.8 41.6726 1536.17 37.7801C1536.28 37.6547 1536.34 37.389 1536.29 37.2337C1534.99 33.2993 1535.31 29.4303 1536.68 25.587C1536.84 25.1424 1537.09 24.9763 1537.49 25.0192C1538.51 25.1274 1539.55 25.167 1540.54 25.4156C1543.71 26.2149 1546.51 27.8285 1549.22 29.6189C1549.52 29.8182 1549.78 29.8932 1550.15 29.7968C1557.56 27.8285 1564.97 27.8382 1572.39 29.7657C1572.81 29.8771 1573.11 29.8139 1573.46 29.5793C1575.9 27.9421 1578.44 26.5021 1581.26 25.6063C1582.52 25.2056 1583.8 24.9388 1585.13 25.0117C1585.42 25.0278 1585.72 25.0085 1585.86 25.3899C1587.26 29.1967 1587.65 33.0518 1586.39 36.9733C1586.25 37.4169 1586.33 37.6676 1586.61 37.9965C1588.76 40.4973 1590.16 43.3698 1590.67 46.6388C1591.36 51.1249 1590.95 55.5457 1589.58 59.8561Z" fill="white"/>
</g>
<path d="M163.031 192V123.281H176.906V150.328H204.094V123.281H217.969V192H204.094V161.953H176.906V192H163.031ZM261.094 176.156L274.219 178.359C272.531 183.172 269.859 186.844 266.203 189.375C262.578 191.875 258.031 193.125 252.562 193.125C243.906 193.125 237.5 190.297 233.344 184.641C230.062 180.109 228.422 174.391 228.422 167.484C228.422 159.234 230.578 152.781 234.891 148.125C239.203 143.438 244.656 141.094 251.25 141.094C258.656 141.094 264.5 143.547 268.781 148.453C273.062 153.328 275.109 160.812 274.922 170.906H241.922C242.016 174.812 243.078 177.859 245.109 180.047C247.141 182.203 249.672 183.281 252.703 183.281C254.766 183.281 256.5 182.719 257.906 181.594C259.312 180.469 260.375 178.656 261.094 176.156ZM261.844 162.844C261.75 159.031 260.766 156.141 258.891 154.172C257.016 152.172 254.734 151.172 252.047 151.172C249.172 151.172 246.797 152.219 244.922 154.312C243.047 156.406 242.125 159.25 242.156 162.844H261.844ZM285.703 192V123.281H298.875V192H285.703ZM312.422 192V123.281H325.594V192H312.422ZM336.094 166.406C336.094 162.031 337.172 157.797 339.328 153.703C341.484 149.609 344.531 146.484 348.469 144.328C352.438 142.172 356.859 141.094 361.734 141.094C369.266 141.094 375.438 143.547 380.25 148.453C385.062 153.328 387.469 159.5 387.469 166.969C387.469 174.5 385.031 180.75 380.156 185.719C375.312 190.656 369.203 193.125 361.828 193.125C357.266 193.125 352.906 192.094 348.75 190.031C344.625 187.969 341.484 184.953 339.328 180.984C337.172 176.984 336.094 172.125 336.094 166.406ZM349.594 167.109C349.594 172.047 350.766 175.828 353.109 178.453C355.453 181.078 358.344 182.391 361.781 182.391C365.219 182.391 368.094 181.078 370.406 178.453C372.75 175.828 373.922 172.016 373.922 167.016C373.922 162.141 372.75 158.391 370.406 155.766C368.094 153.141 365.219 151.828 361.781 151.828C358.344 151.828 355.453 153.141 353.109 155.766C350.766 158.391 349.594 162.172 349.594 167.109ZM434.391 157.406L422.438 155.25C423.781 150.438 426.094 146.875 429.375 144.562C432.656 142.25 437.531 141.094 444 141.094C449.875 141.094 454.25 141.797 457.125 143.203C460 144.578 462.016 146.344 463.172 148.5C464.359 150.625 464.953 154.547 464.953 160.266L464.812 175.641C464.812 180.016 465.016 183.25 465.422 185.344C465.859 187.406 466.656 189.625 467.812 192H454.781C454.438 191.125 454.016 189.828 453.516 188.109C453.297 187.328 453.141 186.812 453.047 186.562C450.797 188.75 448.391 190.391 445.828 191.484C443.266 192.578 440.531 193.125 437.625 193.125C432.5 193.125 428.453 191.734 425.484 188.953C422.547 186.172 421.078 182.656 421.078 178.406C421.078 175.594 421.75 173.094 423.094 170.906C424.438 168.688 426.312 167 428.719 165.844C431.156 164.656 434.656 163.625 439.219 162.75C445.375 161.594 449.641 160.516 452.016 159.516V158.203C452.016 155.672 451.391 153.875 450.141 152.812C448.891 151.719 446.531 151.172 443.062 151.172C440.719 151.172 438.891 151.641 437.578 152.578C436.266 153.484 435.203 155.094 434.391 157.406ZM452.016 168.094C450.328 168.656 447.656 169.328 444 170.109C440.344 170.891 437.953 171.656 436.828 172.406C435.109 173.625 434.25 175.172 434.25 177.047C434.25 178.891 434.938 180.484 436.312 181.828C437.688 183.172 439.438 183.844 441.562 183.844C443.938 183.844 446.203 183.062 448.359 181.5C449.953 180.312 451 178.859 451.5 177.141C451.844 176.016 452.016 173.875 452.016 170.719V168.094ZM523.266 192H510.094V166.594C510.094 161.219 509.812 157.75 509.25 156.188C508.688 154.594 507.766 153.359 506.484 152.484C505.234 151.609 503.719 151.172 501.938 151.172C499.656 151.172 497.609 151.797 495.797 153.047C493.984 154.297 492.734 155.953 492.047 158.016C491.391 160.078 491.062 163.891 491.062 169.453V192H477.891V142.219H490.125V149.531C494.469 143.906 499.938 141.094 506.531 141.094C509.438 141.094 512.094 141.625 514.5 142.688C516.906 143.719 518.719 145.047 519.938 146.672C521.188 148.297 522.047 150.141 522.516 152.203C523.016 154.266 523.266 157.219 523.266 161.062V192ZM582.328 192H570.094V184.688C568.062 187.531 565.656 189.656 562.875 191.062C560.125 192.438 557.344 193.125 554.531 193.125C548.812 193.125 543.906 190.828 539.812 186.234C535.75 181.609 533.719 175.172 533.719 166.922C533.719 158.484 535.703 152.078 539.672 147.703C543.641 143.297 548.656 141.094 554.719 141.094C560.281 141.094 565.094 143.406 569.156 148.031V123.281H582.328V192ZM547.172 166.031C547.172 171.344 547.906 175.188 549.375 177.562C551.5 181 554.469 182.719 558.281 182.719C561.312 182.719 563.891 181.438 566.016 178.875C568.141 176.281 569.203 172.422 569.203 167.297C569.203 161.578 568.172 157.469 566.109 154.969C564.047 152.438 561.406 151.172 558.188 151.172C555.062 151.172 552.438 152.422 550.312 154.922C548.219 157.391 547.172 161.094 547.172 166.031ZM658.641 192L642.234 123.281H656.438L666.797 170.484L679.359 123.281H695.859L707.906 171.281L718.453 123.281H732.422L715.734 192H701.016L687.328 140.625L673.688 192H658.641ZM766.5 176.156L779.625 178.359C777.938 183.172 775.266 186.844 771.609 189.375C767.984 191.875 763.438 193.125 757.969 193.125C749.312 193.125 742.906 190.297 738.75 184.641C735.469 180.109 733.828 174.391 733.828 167.484C733.828 159.234 735.984 152.781 740.297 148.125C744.609 143.438 750.062 141.094 756.656 141.094C764.062 141.094 769.906 143.547 774.188 148.453C778.469 153.328 780.516 160.812 780.328 170.906H747.328C747.422 174.812 748.484 177.859 750.516 180.047C752.547 182.203 755.078 183.281 758.109 183.281C760.172 183.281 761.906 182.719 763.312 181.594C764.719 180.469 765.781 178.656 766.5 176.156ZM767.25 162.844C767.156 159.031 766.172 156.141 764.297 154.172C762.422 152.172 760.141 151.172 757.453 151.172C754.578 151.172 752.203 152.219 750.328 154.312C748.453 156.406 747.531 159.25 747.562 162.844H767.25ZM791.109 192V123.281H804.281V192H791.109ZM861.234 156.938L848.25 159.281C847.812 156.688 846.812 154.734 845.25 153.422C843.719 152.109 841.719 151.453 839.25 151.453C835.969 151.453 833.344 152.594 831.375 154.875C829.438 157.125 828.469 160.906 828.469 166.219C828.469 172.125 829.453 176.297 831.422 178.734C833.422 181.172 836.094 182.391 839.438 182.391C841.938 182.391 843.984 181.688 845.578 180.281C847.172 178.844 848.297 176.391 848.953 172.922L861.891 175.125C860.547 181.062 857.969 185.547 854.156 188.578C850.344 191.609 845.234 193.125 838.828 193.125C831.547 193.125 825.734 190.828 821.391 186.234C817.078 181.641 814.922 175.281 814.922 167.156C814.922 158.938 817.094 152.547 821.438 147.984C825.781 143.391 831.656 141.094 839.062 141.094C845.125 141.094 849.938 142.406 853.5 145.031C857.094 147.625 859.672 151.594 861.234 156.938ZM868.219 166.406C868.219 162.031 869.297 157.797 871.453 153.703C873.609 149.609 876.656 146.484 880.594 144.328C884.562 142.172 888.984 141.094 893.859 141.094C901.391 141.094 907.562 143.547 912.375 148.453C917.188 153.328 919.594 159.5 919.594 166.969C919.594 174.5 917.156 180.75 912.281 185.719C907.438 190.656 901.328 193.125 893.953 193.125C889.391 193.125 885.031 192.094 880.875 190.031C876.75 187.969 873.609 184.953 871.453 180.984C869.297 176.984 868.219 172.125 868.219 166.406ZM881.719 167.109C881.719 172.047 882.891 175.828 885.234 178.453C887.578 181.078 890.469 182.391 893.906 182.391C897.344 182.391 900.219 181.078 902.531 178.453C904.875 175.828 906.047 172.016 906.047 167.016C906.047 162.141 904.875 158.391 902.531 155.766C900.219 153.141 897.344 151.828 893.906 151.828C890.469 151.828 887.578 153.141 885.234 155.766C882.891 158.391 881.719 162.172 881.719 167.109ZM928.969 142.219H941.109V149.016C945.453 143.734 950.625 141.094 956.625 141.094C959.812 141.094 962.578 141.75 964.922 143.062C967.266 144.375 969.188 146.359 970.688 149.016C972.875 146.359 975.234 144.375 977.766 143.062C980.297 141.75 983 141.094 985.875 141.094C989.531 141.094 992.625 141.844 995.156 143.344C997.688 144.812 999.578 146.984 1000.83 149.859C1001.73 151.984 1002.19 155.422 1002.19 160.172V192H989.016V163.547C989.016 158.609 988.562 155.422 987.656 153.984C986.438 152.109 984.562 151.172 982.031 151.172C980.188 151.172 978.453 151.734 976.828 152.859C975.203 153.984 974.031 155.641 973.312 157.828C972.594 159.984 972.234 163.406 972.234 168.094V192H959.062V164.719C959.062 159.875 958.828 156.75 958.359 155.344C957.891 153.938 957.156 152.891 956.156 152.203C955.188 151.516 953.859 151.172 952.172 151.172C950.141 151.172 948.312 151.719 946.688 152.812C945.062 153.906 943.891 155.484 943.172 157.547C942.484 159.609 942.141 163.031 942.141 167.812V192H928.969V142.219ZM1044.19 176.156L1057.31 178.359C1055.62 183.172 1052.95 186.844 1049.3 189.375C1045.67 191.875 1041.12 193.125 1035.66 193.125C1027 193.125 1020.59 190.297 1016.44 184.641C1013.16 180.109 1011.52 174.391 1011.52 167.484C1011.52 159.234 1013.67 152.781 1017.98 148.125C1022.3 143.438 1027.75 141.094 1034.34 141.094C1041.75 141.094 1047.59 143.547 1051.88 148.453C1056.16 153.328 1058.2 160.812 1058.02 170.906H1025.02C1025.11 174.812 1026.17 177.859 1028.2 180.047C1030.23 182.203 1032.77 183.281 1035.8 183.281C1037.86 183.281 1039.59 182.719 1041 181.594C1042.41 180.469 1043.47 178.656 1044.19 176.156ZM1044.94 162.844C1044.84 159.031 1043.86 156.141 1041.98 154.172C1040.11 152.172 1037.83 151.172 1035.14 151.172C1032.27 151.172 1029.89 152.219 1028.02 154.312C1026.14 156.406 1025.22 159.25 1025.25 162.844H1044.94ZM1118.34 142.219V152.719H1109.34V172.781C1109.34 176.844 1109.42 179.219 1109.58 179.906C1109.77 180.562 1110.16 181.109 1110.75 181.547C1111.38 181.984 1112.12 182.203 1113 182.203C1114.22 182.203 1115.98 181.781 1118.3 180.938L1119.42 191.156C1116.36 192.469 1112.89 193.125 1109.02 193.125C1106.64 193.125 1104.5 192.734 1102.59 191.953C1100.69 191.141 1099.28 190.109 1098.38 188.859C1097.5 187.578 1096.89 185.859 1096.55 183.703C1096.27 182.172 1096.12 179.078 1096.12 174.422V152.719H1090.08V142.219H1096.12V132.328L1109.34 124.641V142.219H1118.34ZM1124.44 166.406C1124.44 162.031 1125.52 157.797 1127.67 153.703C1129.83 149.609 1132.88 146.484 1136.81 144.328C1140.78 142.172 1145.2 141.094 1150.08 141.094C1157.61 141.094 1163.78 143.547 1168.59 148.453C1173.41 153.328 1175.81 159.5 1175.81 166.969C1175.81 174.5 1173.38 180.75 1168.5 185.719C1163.66 190.656 1157.55 193.125 1150.17 193.125C1145.61 193.125 1141.25 192.094 1137.09 190.031C1132.97 187.969 1129.83 184.953 1127.67 180.984C1125.52 176.984 1124.44 172.125 1124.44 166.406ZM1137.94 167.109C1137.94 172.047 1139.11 175.828 1141.45 178.453C1143.8 181.078 1146.69 182.391 1150.12 182.391C1153.56 182.391 1156.44 181.078 1158.75 178.453C1161.09 175.828 1162.27 172.016 1162.27 167.016C1162.27 162.141 1161.09 158.391 1158.75 155.766C1156.44 153.141 1153.56 151.828 1150.12 151.828C1146.69 151.828 1143.8 153.141 1141.45 155.766C1139.11 158.391 1137.94 162.172 1137.94 167.109ZM1211.91 142.219H1224.05V149.016C1228.39 143.734 1233.56 141.094 1239.56 141.094C1242.75 141.094 1245.52 141.75 1247.86 143.062C1250.2 144.375 1252.12 146.359 1253.62 149.016C1255.81 146.359 1258.17 144.375 1260.7 143.062C1263.23 141.75 1265.94 141.094 1268.81 141.094C1272.47 141.094 1275.56 141.844 1278.09 143.344C1280.62 144.812 1282.52 146.984 1283.77 149.859C1284.67 151.984 1285.12 155.422 1285.12 160.172V192H1271.95V163.547C1271.95 158.609 1271.5 155.422 1270.59 153.984C1269.38 152.109 1267.5 151.172 1264.97 151.172C1263.12 151.172 1261.39 151.734 1259.77 152.859C1258.14 153.984 1256.97 155.641 1256.25 157.828C1255.53 159.984 1255.17 163.406 1255.17 168.094V192H1242V164.719C1242 159.875 1241.77 156.75 1241.3 155.344C1240.83 153.938 1240.09 152.891 1239.09 152.203C1238.12 151.516 1236.8 151.172 1235.11 151.172C1233.08 151.172 1231.25 151.719 1229.62 152.812C1228 153.906 1226.83 155.484 1226.11 157.547C1225.42 159.609 1225.08 163.031 1225.08 167.812V192H1211.91V142.219ZM1292.06 142.219H1306.08L1317.98 177.562L1329.61 142.219H1343.25L1325.67 190.125L1322.53 198.797C1321.38 201.703 1320.27 203.922 1319.2 205.453C1318.17 206.984 1316.97 208.219 1315.59 209.156C1314.25 210.125 1312.58 210.875 1310.58 211.406C1308.61 211.938 1306.38 212.203 1303.88 212.203C1301.34 212.203 1298.86 211.938 1296.42 211.406L1295.25 201.094C1297.31 201.5 1299.17 201.703 1300.83 201.703C1303.89 201.703 1306.16 200.797 1307.62 198.984C1309.09 197.203 1310.22 194.922 1311 192.141L1292.06 142.219Z" fill="white"/>
</g>
<defs>
<filter id="filter0_f_1810_6022" x="-302.722" y="-321.5" width="1075.22" height="1095.09" filterUnits="userSpaceOnUse" color-interpolation-filters="sRGB">
<feFlood flood-opacity="0" result="BackgroundImageFix"/>
<feBlend mode="normal" in="SourceGraphic" in2="BackgroundImageFix" result="shape"/>
<feGaussianBlur stdDeviation="150" result="effect1_foregroundBlur_1810_6022"/>
</filter>
<filter id="filter1_f_1810_6022" x="336.603" y="-151.828" width="1448.74" height="988.328" filterUnits="userSpaceOnUse" color-interpolation-filters="sRGB">
<feFlood flood-opacity="0" result="BackgroundImageFix"/>
<feBlend mode="normal" in="SourceGraphic" in2="BackgroundImageFix" result="shape"/>
<feGaussianBlur stdDeviation="150" result="effect1_foregroundBlur_1810_6022"/>
</filter>
<filter id="filter2_f_1810_6022" x="934.854" y="185.721" width="1284.15" height="905.279" filterUnits="userSpaceOnUse" color-interpolation-filters="sRGB">
<feFlood flood-opacity="0" result="BackgroundImageFix"/>
<feBlend mode="normal" in="SourceGraphic" in2="BackgroundImageFix" result="shape"/>
<feGaussianBlur stdDeviation="150" result="effect1_foregroundBlur_1810_6022"/>
</filter>
<filter id="filter3_d_1810_6022" x="714" y="57" width="88" height="78" filterUnits="userSpaceOnUse" color-interpolation-filters="sRGB">
<feFlood flood-opacity="0" result="BackgroundImageFix"/>
<feColorMatrix in="SourceAlpha" type="matrix" values="0 0 0 0 0 0 0 0 0 0 0 0 0 0 0 0 0 0 127 0" result="hardAlpha"/>
<feOffset dy="4"/>
<feGaussianBlur stdDeviation="2"/>
<feComposite in2="hardAlpha" operator="out"/>
<feColorMatrix type="matrix" values="0 0 0 0 0 0 0 0 0 0 0 0 0 0 0 0 0 0 0.25 0"/>
<feBlend mode="normal" in2="BackgroundImageFix" result="effect1_dropShadow_1810_6022"/>
<feBlend mode="normal" in="SourceGraphic" in2="effect1_dropShadow_1810_6022" result="shape"/>
</filter>
<linearGradient id="paint0_linear_1810_6022" x1="234.889" y1="-21.5" x2="234.889" y2="473.589" gradientUnits="userSpaceOnUse">
<stop stop-color="#7863E6"/>
<stop offset="0.71" stop-color="#E29EB2"/>
</linearGradient>
<linearGradient id="paint1_linear_1810_6022" x1="1660.54" y1="263.958" x2="1221.39" y2="743.862" gradientUnits="userSpaceOnUse">
<stop stop-color="#35C656"/>
<stop offset="1" stop-color="#32C1ED"/>
</linearGradient>
<linearGradient id="paint2_linear_1810_6022" x1="1341.1" y1="486.721" x2="1569.43" y2="989.615" gradientUnits="userSpaceOnUse">
<stop offset="0.0339999" stop-color="#CBEAFF"/>
<stop offset="0.439" stop-color="#AD8AF8"/>
<stop offset="1" stop-color="#E03DFF"/>
</linearGradient>
<linearGradient id="paint3_linear_1810_6022" x1="1649.41" y1="189.729" x2="1649.41" y2="229.79" gradientUnits="userSpaceOnUse">
<stop stop-color="#C73EF2"/>
<stop offset="1" stop-color="#F3B4AA"/>
</linearGradient>
<linearGradient id="paint4_linear_1810_6022" x1="1634.38" y1="190.9" x2="1674.43" y2="230.13" gradientUnits="userSpaceOnUse">
<stop offset="0.0339999" stop-color="#CA69EA"/>
<stop offset="0.439" stop-color="#AD8AF8"/>
<stop offset="1" stop-color="#7719AB"/>
</linearGradient>
<linearGradient id="paint5_linear_1810_6022" x1="238.582" y1="253.37" x2="244.75" y2="272.788" gradientUnits="userSpaceOnUse">
<stop stop-color="#7863E6"/>
<stop offset="0.71" stop-color="#E29EB2"/>
</linearGradient>
<linearGradient id="paint6_linear_1810_6022" x1="1476.05" y1="100.084" x2="1476.94" y2="102.257" gradientUnits="userSpaceOnUse">
<stop stop-color="#8873FE"/>
<stop offset="1" stop-color="#73A2FE" stop-opacity="0.94"/>
</linearGradient>
<linearGradient id="paint7_linear_1810_6022" x1="335.918" y1="245.928" x2="335.979" y2="246.196" gradientUnits="userSpaceOnUse">
<stop stop-color="#8873FE"/>
<stop offset="1" stop-color="#73A2FE" stop-opacity="0.94"/>
</linearGradient>
<linearGradient id="paint8_linear_1810_6022" x1="282.735" y1="218.405" x2="288.735" y2="267.611" gradientUnits="userSpaceOnUse">
<stop offset="0.0339999" stop-color="#CA69EA"/>
<stop offset="0.439" stop-color="#AD8AF8"/>
<stop offset="1" stop-color="#7719AB"/>
</linearGradient>
<linearGradient id="paint9_linear_1810_6022" x1="1086.91" y1="158.422" x2="1084.05" y2="155.175" gradientUnits="userSpaceOnUse">
<stop stop-color="#41C5F5"/>
<stop offset="1" stop-color="#2460E4"/>
</linearGradient>
<linearGradient id="paint10_linear_1810_6022" x1="209.479" y1="103.147" x2="206.204" y2="109.506" gradientUnits="userSpaceOnUse">
<stop stop-color="#EA8002"/>
<stop offset="1" stop-color="#D63B02"/>
</linearGradient>
<linearGradient id="paint11_linear_1810_6022" x1="620.16" y1="150.62" x2="624.179" y2="155.814" gradientUnits="userSpaceOnUse">
<stop stop-color="#FCE724"/>
<stop offset="1" stop-color="#FDB411"/>
</linearGradient>
<linearGradient id="paint12_linear_1810_6022" x1="1331.81" y1="57" x2="1352.45" y2="70.6113" gradientUnits="userSpaceOnUse">
<stop stop-color="#09DE8C"/>
<stop offset="0.5" stop-color="#09DEC4"/>
<stop offset="0.965" stop-color="#10D4C8"/>
</linearGradient>
<linearGradient id="paint13_linear_1810_6022" x1="1231.29" y1="221.318" x2="1232.04" y2="224.64" gradientUnits="userSpaceOnUse">
<stop stop-color="#37C5CF"/>
<stop offset="1" stop-color="#195ABE"/>
</linearGradient>
<linearGradient id="paint14_linear_1810_6022" x1="1198.45" y1="249.379" x2="1196.7" y2="250.546" gradientUnits="userSpaceOnUse">
<stop stop-color="#35C656"/>
<stop offset="1" stop-color="#32C1ED"/>
</linearGradient>
<linearGradient id="paint15_linear_1810_6022" x1="1262.14" y1="103.743" x2="1249.07" y2="103.743" gradientUnits="userSpaceOnUse">
<stop stop-color="white"/>
<stop offset="0.9955" stop-color="#CDD4F9"/>
</linearGradient>
<linearGradient id="paint16_linear_1810_6022" x1="744.412" y1="93.8421" x2="744.412" y2="98.274" gradientUnits="userSpaceOnUse">
<stop stop-color="#EA8002"/>
<stop offset="1" stop-color="#D63B02"/>
</linearGradient>
<linearGradient id="paint17_linear_1810_6022" x1="758.053" y1="87.7717" x2="756.323" y2="88.6545" gradientUnits="userSpaceOnUse">
<stop stop-color="#41C5F5"/>
<stop offset="1" stop-color="#2460E4"/>
</linearGradient>
<linearGradient id="paint18_linear_1810_6022" x1="784.528" y1="75.6369" x2="785.759" y2="79.1141" gradientUnits="userSpaceOnUse">
<stop stop-color="#37C5CF"/>
<stop offset="1" stop-color="#195ABE"/>
</linearGradient>
<linearGradient id="paint19_linear_1810_6022" x1="765.333" y1="94.3406" x2="771.233" y2="113.193" gradientUnits="userSpaceOnUse">
<stop stop-color="#37C5CF"/>
<stop offset="1" stop-color="#195ABE"/>
</linearGradient>
<linearGradient id="paint20_linear_1810_6022" x1="747.362" y1="109.797" x2="748.65" y2="113.198" gradientUnits="userSpaceOnUse">
<stop stop-color="#37C5CF"/>
<stop offset="1" stop-color="#195ABE"/>
</linearGradient>
<linearGradient id="paint21_linear_1810_6022" x1="745.728" y1="112.227" x2="744.151" y2="112.99" gradientUnits="userSpaceOnUse">
<stop stop-color="#41C5F5"/>
<stop offset="1" stop-color="#2460E4"/>
</linearGradient>
<linearGradient id="paint22_linear_1810_6022" x1="787.179" y1="85.3295" x2="759.217" y2="99.9153" gradientUnits="userSpaceOnUse">
<stop stop-color="#41C5F5"/>
<stop offset="1" stop-color="#2460E4"/>
</linearGradient>
<linearGradient id="paint23_linear_1810_6022" x1="788.296" y1="86.8981" x2="760.244" y2="101.701" gradientUnits="userSpaceOnUse">
<stop stop-color="#41C5F5"/>
<stop offset="1" stop-color="#2460E4"/>
</linearGradient>
<linearGradient id="paint24_linear_1810_6022" x1="789.461" y1="88.1755" x2="761.401" y2="103.227" gradientUnits="userSpaceOnUse">
<stop stop-color="#41C5F5"/>
<stop offset="1" stop-color="#2460E4"/>
</linearGradient>
<linearGradient id="paint25_linear_1810_6022" x1="754.792" y1="74.5162" x2="758.391" y2="80.8722" gradientUnits="userSpaceOnUse">
<stop stop-color="#F52F3B"/>
<stop offset="1" stop-color="#CF376E"/>
</linearGradient>
<linearGradient id="paint26_linear_1810_6022" x1="760.953" y1="73.5177" x2="756.896" y2="80.477" gradientUnits="userSpaceOnUse">
<stop stop-color="#41C5F5"/>
<stop offset="1" stop-color="#2460E4"/>
</linearGradient>
<linearGradient id="paint27_linear_1810_6022" x1="772.52" y1="94.4235" x2="768.447" y2="96.5093" gradientUnits="userSpaceOnUse">
<stop stop-color="#41C5F5"/>
<stop offset="1" stop-color="#2460E4"/>
</linearGradient>
<linearGradient id="paint28_linear_1810_6022" x1="777.012" y1="96.0526" x2="777.012" y2="106.161" gradientUnits="userSpaceOnUse">
<stop stop-color="#FCE724"/>
<stop offset="1" stop-color="#FDB411"/>
</linearGradient>
<linearGradient id="paint29_linear_1810_6022" x1="1838.84" y1="201.874" x2="1838.84" y2="268.515" gradientUnits="userSpaceOnUse">
<stop stop-color="#7863E6"/>
<stop offset="0.71" stop-color="#E29EB2"/>
</linearGradient>
<linearGradient id="paint30_linear_1810_6022" x1="1821.08" y1="239.5" x2="1821.08" y2="260.553" gradientUnits="userSpaceOnUse">
<stop stop-color="#C73EF2"/>
<stop offset="1" stop-color="#F3B4AA"/>
</linearGradient>
<linearGradient id="paint31_linear_1810_6022" x1="1863.23" y1="214.589" x2="1863.23" y2="246.039" gradientUnits="userSpaceOnUse">
<stop stop-color="#C73EF2"/>
<stop offset="1" stop-color="#F3B4AA"/>
</linearGradient>
<linearGradient id="paint32_linear_1810_6022" x1="960.192" y1="224.336" x2="1015.1" y2="235.656" gradientUnits="userSpaceOnUse">
<stop offset="0.0339999" stop-color="#CA69EA"/>
<stop offset="0.439" stop-color="#AD8AF8"/>
<stop offset="1" stop-color="#7719AB"/>
</linearGradient>
<clipPath id="clip0_1810_6022">
<rect width="1920" height="314" fill="white" transform="translate(0 -13)"/>
</clipPath>
<clipPath id="clip1_1810_6022">
<rect width="64" height="72" fill="white" transform="translate(1527 25)"/>
</clipPath>
</defs>
</svg>
