<svg width="21" height="20" viewBox="0 0 21 20" fill="none" xmlns="http://www.w3.org/2000/svg">
<path d="M14.1141 2.41168C12.6206 0.921426 10.549 -0.00234609 8.26744 4.47516e-06C5.98587 4.47516e-06 3.91429 0.923777 2.42078 2.41168C0.9249 3.90194 -0.00235494 5.96574 4.49204e-06 8.23639C4.49204e-06 10.5094 0.927259 12.5732 2.42078 14.0611C3.91429 15.5513 5.98587 16.4751 8.26744 16.4728C10.549 16.4728 12.6206 15.549 14.1141 14.0611C15.61 12.5732 16.5372 10.5094 16.5349 8.23639C16.5349 5.96574 15.6076 3.90194 14.1141 2.41168ZM13.1113 13.0645C11.8679 14.3008 10.1597 15.0624 8.26508 15.0648C6.37046 15.0648 4.66223 14.3008 3.41881 13.0645C2.17776 11.8257 1.4133 10.1239 1.41094 8.23639C1.41094 6.34888 2.17776 4.64707 3.41881 3.40833C4.66223 2.17193 6.37046 1.41034 8.26508 1.40799C10.1597 1.40799 11.8679 2.17193 13.1113 3.40833C14.3524 4.64707 15.1192 6.34888 15.1192 8.23639C15.1192 10.1239 14.3548 11.8257 13.1113 13.0645Z" fill="url(#paint0_linear_1810_6360)"/>
<path d="M16.0724 14.0638C15.9072 13.8993 15.6406 13.8993 15.4755 14.0638L14.3241 15.2086C14.1589 15.3731 14.1589 15.6387 14.3241 15.8033L18.413 19.8768C18.5781 20.0413 18.8447 20.0413 19.0099 19.8768L20.1589 18.7297C20.3241 18.5652 20.3241 18.2996 20.1589 18.135L16.0724 14.0638Z" fill="url(#paint1_linear_1810_6360)"/>
<path d="M12.1772 5.32398C12.1772 5.32398 7.46546 8.60772 6.91335 8.918C6.88032 8.9368 6.84257 8.93445 6.80954 8.918L4.62235 7.21384C4.52089 7.15742 4.41472 7.2773 4.48314 7.36897C5.11311 8.21518 6.44147 10.0792 6.77887 10.554C6.82134 10.6128 6.90627 10.6198 6.95818 10.5704L12.2457 5.4039C12.2928 5.35454 12.2268 5.28167 12.1772 5.32398Z" fill="url(#paint2_linear_1810_6360)"/>
<defs>
<linearGradient id="paint0_linear_1810_6360" x1="7.90981" y1="9.05231" x2="10.6743" y2="17.497" gradientUnits="userSpaceOnUse">
<stop stop-color="#8873FE"/>
<stop offset="1" stop-color="#73A2FE" stop-opacity="0.94"/>
</linearGradient>
<linearGradient id="paint1_linear_1810_6360" x1="17.1099" y1="17.2705" x2="18.1269" y2="20.377" gradientUnits="userSpaceOnUse">
<stop stop-color="#8873FE"/>
<stop offset="1" stop-color="#73A2FE" stop-opacity="0.94"/>
</linearGradient>
<linearGradient id="paint2_linear_1810_6360" x1="8.19293" y1="8.21938" x2="8.83082" y2="11.0808" gradientUnits="userSpaceOnUse">
<stop stop-color="#8873FE"/>
<stop offset="1" stop-color="#73A2FE" stop-opacity="0.94"/>
</linearGradient>
</defs>
</svg>
