<svg width="19" height="18" viewBox="0 0 19 18" fill="none" xmlns="http://www.w3.org/2000/svg">
<g clip-path="url(#clip0_1812_10777)">
<path d="M2.48343 7.36365C1.82676 6.97866 1.17008 6.58911 0.510592 6.20869C0.227954 6.04587 0.00578112 5.83588 0.00015649 5.46002C-0.0068743 5.04917 0.223736 4.83461 0.544339 4.6657C3.38056 3.17597 6.21678 1.68168 9.04597 0.178255C9.48188 -0.0530409 9.88263 -0.062171 10.3157 0.178255C13.0184 1.67711 15.7294 3.15923 18.4307 4.66266C19.1801 5.0796 19.1872 5.7461 18.4672 6.2026C17.722 6.67584 16.9781 7.15822 16.2061 7.57973C15.7576 7.82472 15.5719 8.10775 15.5888 8.68142C15.6352 10.1985 15.5902 11.7202 15.6113 13.2389C15.6183 13.8049 15.4159 14.1975 15.0067 14.5216C11.8864 16.9944 7.53294 17.005 4.43518 14.5597C3.97396 14.196 3.7785 13.7699 3.78131 13.1521C3.79256 11.457 3.75882 9.76334 3.74335 8.06819C4.08083 7.77602 4.47736 7.70907 4.89359 7.70907C6.33208 8.55512 7.77621 9.38749 9.20205 10.2533C9.55359 10.4664 9.82217 10.4664 10.1681 10.2472C11.4378 9.44074 12.7273 8.66925 14.0069 7.8795C15.2921 7.08822 16.5759 6.29238 17.954 5.44024C15.2204 3.92768 12.5993 2.48513 9.98669 1.02735C9.67874 0.855404 9.45516 0.995399 9.20205 1.12779C6.84955 2.36948 4.49705 3.60661 2.14455 4.84982C1.80004 5.03243 1.46256 5.23025 1.06181 5.45545C1.9505 5.98957 2.74638 6.46737 3.54227 6.94518C3.24416 7.24495 2.85184 7.2693 2.48343 7.36365ZM4.64048 8.62817C4.64048 10.2107 4.64891 11.6776 4.63345 13.1445C4.63063 13.4671 4.75578 13.6497 4.97514 13.8323C7.59481 15.9992 11.8991 15.9931 14.4442 13.8125C14.6115 13.6695 14.7634 13.5371 14.762 13.2647C14.755 11.7081 14.7578 10.1514 14.7578 8.48817C13.2757 9.39814 11.892 10.232 10.5224 11.0963C9.96138 11.4509 9.45375 11.4676 8.87582 11.1161C7.51466 10.2838 6.12819 9.49857 4.64048 8.62817Z" fill="url(#paint0_linear_1812_10777)"/>
<path d="M2.48343 7.36339C2.85184 7.26752 3.24275 7.24317 3.54226 6.94492C3.80803 7.00427 4.04707 6.89014 4.29315 6.8171C5.66415 6.40625 7.03516 5.99691 8.40616 5.58606C8.3921 5.90105 8.72536 6.01365 8.76192 6.29973C8.67192 6.48538 8.49194 6.46559 8.34148 6.52342C7.20249 6.95558 5.99038 7.13361 4.89358 7.70881C4.47876 7.70881 4.08082 7.77576 3.74334 8.06793C3.2779 7.9888 2.98402 8.23075 2.7984 8.66443C2.56076 9.22136 2.44265 9.81482 2.38499 10.4205C2.36812 10.5909 2.33437 10.7811 2.47499 10.9211C3.25962 11.6987 3.03323 12.5828 2.69857 13.4699C2.5467 13.8731 2.64935 14.2718 2.69716 14.6629C2.80965 15.5759 2.75481 16.4813 2.6592 17.3867C2.60014 17.9406 2.33578 18.1536 1.83659 17.8828C1.41896 17.6561 1.00274 17.4278 0.582301 17.2072C0.144986 16.9774 0.0929578 16.6898 0.361534 16.2363C0.624485 15.795 0.873375 15.337 1.04493 14.8303C1.23616 14.2673 1.37819 13.7879 0.971806 13.2158C0.597768 12.6878 0.808692 11.4415 1.26147 10.9926C1.43865 10.8176 1.50615 10.6274 1.52021 10.4022C1.58911 9.2944 1.92377 8.28857 2.48343 7.36339Z" fill="url(#paint1_linear_1812_10777)"/>
<path d="M8.40619 5.58614C8.91804 4.9653 9.86719 4.77508 10.5675 5.1479C10.7615 5.25137 10.9443 5.37615 10.9612 5.63484C10.9823 5.94069 10.7742 6.08373 10.5576 6.18873C9.97406 6.47481 9.36238 6.31655 8.76195 6.29981C8.72539 6.01374 8.39213 5.90113 8.40619 5.58614Z" fill="url(#paint2_linear_1812_10777)"/>
</g>
<defs>
<linearGradient id="paint0_linear_1812_10777" x1="9.50005" y1="0.00134277" x2="9.50005" y2="16.385" gradientUnits="userSpaceOnUse">
<stop stop-color="#C73EF2"/>
<stop offset="1" stop-color="#F3B4AA"/>
</linearGradient>
<linearGradient id="paint1_linear_1812_10777" x1="4.47959" y1="5.58606" x2="4.47959" y2="17.9998" gradientUnits="userSpaceOnUse">
<stop stop-color="#C73EF2"/>
<stop offset="1" stop-color="#F3B4AA"/>
</linearGradient>
<linearGradient id="paint2_linear_1812_10777" x1="9.68421" y1="4.95764" x2="9.68421" y2="6.35848" gradientUnits="userSpaceOnUse">
<stop stop-color="#C73EF2"/>
<stop offset="1" stop-color="#F3B4AA"/>
</linearGradient>
<clipPath id="clip0_1812_10777">
<rect width="19" height="18" fill="white"/>
</clipPath>
</defs>
</svg>
