<svg width="19" height="18" viewBox="0 0 19 18" fill="none" xmlns="http://www.w3.org/2000/svg">
<path d="M6.38879 2.2121C7.36807 -0.737368 11.6319 -0.737367 12.6112 2.2121C13.0492 3.53115 14.3052 4.4242 15.7224 4.4242C18.8914 4.4242 20.209 8.39269 17.6452 10.2156C16.4987 11.0308 16.0189 12.4758 16.4569 13.7948C17.4361 16.7443 13.9866 19.1969 11.4228 17.3741C10.2763 16.5589 8.72372 16.5589 7.57717 17.3741C5.01339 19.1969 1.56386 16.7443 2.54313 13.7948C2.98108 12.4758 2.50131 11.0308 1.35476 10.2156C-1.20902 8.39269 0.108586 4.4242 3.27759 4.4242C4.69481 4.4242 5.95085 3.53115 6.38879 2.2121Z" fill="url(#paint0_linear_1815_11385)"/>
<defs>
<linearGradient id="paint0_linear_1815_11385" x1="9.5" y1="0" x2="20.2872" y2="6.07471" gradientUnits="userSpaceOnUse">
<stop stop-color="#09DE8C"/>
<stop offset="0.5" stop-color="#09DEC4"/>
<stop offset="0.965" stop-color="#10D4C8"/>
</linearGradient>
</defs>
</svg>
