<svg width="18" height="18" viewBox="0 0 18 18" fill="none" xmlns="http://www.w3.org/2000/svg">
<g clip-path="url(#clip0_1812_6964)">
<path d="M3.51548 17.6889C2.71851 16.7899 1.6374 16.0731 1.78755 14.614C1.83375 14.1783 1.31861 13.9478 1.04371 13.639C-0.217581 12.2306 -0.323844 11.4791 0.646382 9.83335C1.01368 9.20868 0.886628 8.57019 0.891248 7.934C0.895868 7.25401 0.949 6.62705 1.58889 6.21905C1.62354 6.18217 1.65819 6.1476 1.69515 6.11072C1.74135 6.09228 1.78986 6.07384 1.83606 6.05309C2.09017 6.02543 2.34428 6.02082 2.59376 6.09919C3.07426 6.31587 3.36763 6.75843 3.76727 7.07422C3.85044 7.13876 3.92436 7.21252 3.99366 7.28859C4.87841 8.20599 5.5183 7.3393 6.22749 6.98202C6.31527 6.91978 6.40998 6.87138 6.50932 6.82758C7.48185 6.1937 8.53755 5.88943 9.70413 6.01621C10.6189 6.29051 11.3674 6.88982 12.2129 7.29781C12.758 7.56058 13.3194 7.86254 13.8576 7.27015C14.4351 6.73308 14.874 5.93093 15.8789 6.21905C16.5766 6.87138 17.0132 7.59977 16.7521 8.61859C16.6366 9.06577 16.8053 9.46224 17.1148 9.87023C17.9418 10.9605 17.8448 12.143 16.9323 13.1941C16.207 14.0285 15.5994 14.8745 15.3407 16.0177C15.1397 16.9052 14.4906 17.6244 13.3471 17.5437C12.8574 17.5091 12.3584 17.6267 11.864 17.6705C11.1202 17.735 10.3972 17.6405 10.0044 16.8545C9.92128 16.375 10.2262 15.974 10.2816 15.5222C10.3925 14.6094 10.2886 13.7519 9.45003 13.1779C9.06193 12.9129 8.62995 12.9175 8.29037 13.2609C7.62508 13.9386 7.40793 14.7592 7.63663 15.6858C7.75444 16.163 8.12867 16.5617 8.08478 17.0896C7.83991 17.6244 7.44258 17.9378 6.83273 17.9217C5.71928 17.8987 4.5989 18.0416 3.51548 17.6889Z" fill="#F7F2F6"/>
<path d="M1.90771 4.36118C2.40438 1.81411 4.26398 0.193676 6.97599 0.0507638C8.3551 -0.0229972 9.74575 -0.0160821 11.1249 0.062289C13.5781 0.200591 15.4863 1.92245 15.9945 4.34965C15.7242 4.66774 15.38 4.65622 15.0173 4.57093C11.7301 4.34734 8.43826 4.53175 5.14873 4.47643C4.53888 4.46721 3.92209 4.40958 3.32609 4.62164C2.8225 4.6931 2.31429 4.79683 1.90771 4.36118Z" fill="#F7F2F5"/>
<path d="M8.08058 17.0965C6.95789 15.7711 6.83546 14.4849 7.72021 13.2586C8.40861 12.3043 9.55209 12.2905 10.1874 13.2793C10.9381 14.4457 10.9566 15.6443 10.1573 16.8176C10.0788 16.9443 10.0441 17.1241 9.83161 17.0942C9.24716 17.0919 8.66272 17.0942 8.08058 17.0965Z" fill="#2F041D"/>
<path d="M9.8291 17.0918C9.93767 16.9996 10.0462 16.9074 10.1548 16.8152C10.8871 17.5897 11.795 17.2832 12.6797 17.267C15.0013 17.2278 14.9228 16.4787 15.237 14.9459C15.4287 14.01 16.355 13.5767 16.8563 12.8368C17.3322 12.1337 17.6279 10.4303 17.0388 10.1491C15.766 9.54056 16.452 8.67387 16.5745 7.93165C16.6923 7.21709 15.7775 7.07648 15.9138 6.43337C15.8537 6.24897 15.9346 6.19365 16.1079 6.22362C16.8147 6.48869 17.1243 6.99119 17.0596 7.74263C16.9834 8.63468 17.0942 9.45758 17.6025 10.262C18.2169 11.2348 18.113 12.2859 17.3276 13.1341C16.586 13.9363 16.0108 14.7753 15.9461 15.8932C15.6481 16.2851 15.2762 16.6147 15.0013 17.0273C14.2159 17.8733 11.2036 18.3135 10.238 17.7326C9.98619 17.5851 9.88454 17.3569 9.8291 17.0918Z" fill="#F9F1E5"/>
<path d="M16.1076 6.22589C16.0429 6.29504 15.9782 6.36419 15.9136 6.43565C14.9249 6.22819 14.6107 7.12024 14.0332 7.58355C13.4441 7.39915 13.6405 6.98425 13.8322 6.67537C14.1279 6.19362 14.5067 5.76719 15.1489 5.88705C14.6546 5.42143 14.0031 5.28774 13.2547 5.28083C10.4942 5.26239 7.73364 5.18632 4.9708 5.2693C4.06064 5.29696 3.97286 5.17249 4.07681 4.43718C8.06398 4.38878 12.0535 4.17211 16.036 4.56857C16.2139 5.11256 16.14 5.67038 16.1076 6.22589Z" fill="#2B0818"/>
<path d="M16.0363 4.56628C12.0006 4.58702 7.96263 4.60777 3.92695 4.63082C3.80914 4.79217 3.64282 4.86824 3.45339 4.90973C3.08147 4.93278 2.70955 4.94661 2.33994 4.88898C2.15283 4.84058 2.00729 4.72993 1.87793 4.59394C1.88717 4.51787 1.89641 4.4395 1.90565 4.36343C2.34918 4.35191 2.7904 4.34038 3.23163 4.32886C7.22803 4.19978 11.2244 4.20208 15.2208 4.32886C15.4773 4.33577 15.736 4.34499 15.9924 4.35421C16.0086 4.42106 16.0224 4.49252 16.0363 4.56628Z" fill="#7E6774"/>
<path d="M15.0015 17.0296C15.0869 16.4602 15.4796 16.1468 15.9463 15.8955C15.81 16.4234 15.4265 16.7438 15.0015 17.0296Z" fill="#FCE7AB"/>
<path d="M1.87764 4.58936C2.01625 4.60319 2.15485 4.61932 2.29346 4.63315C2.37431 4.72074 2.42051 4.82447 2.43206 4.94203C2.30963 5.39381 2.60531 6.03 1.87302 6.21671L1.81065 6.23284C1.66512 5.76262 1.6836 5.28548 1.80372 4.80833C1.82913 4.73688 1.85223 4.66312 1.87764 4.58936Z" fill="#380402"/>
<path d="M3.44623 4.62622C3.60794 4.62622 3.76733 4.62853 3.92904 4.62853C4.05609 4.83137 4.20393 5.00425 4.47652 4.97198C7.572 4.58473 10.679 5.00886 13.7768 4.81523C14.6108 4.76222 15.0266 5.2601 15.4586 5.80179C14.9342 6.36422 13.6821 6.33425 14.0356 7.58358C13.6082 8.38803 13.003 8.13218 12.4208 7.82791C11.4922 7.34155 10.5797 6.82292 9.65799 6.32042C8.58843 5.63352 7.70368 5.87094 6.48627 7.17328L6.49321 7.16867C6.23217 7.21708 5.92031 7.20094 5.7355 7.39457C5.02863 8.13909 4.34254 7.88093 3.6449 7.40609L3.64952 7.4107C3.45778 6.70767 2.87565 6.14293 2.92647 5.35231C2.94495 4.99733 3.12976 4.76452 3.44623 4.62622Z" fill="#300220"/>
<path d="M4.53929 13.4937C4.04956 13.4176 3.71922 13.2747 3.58523 12.8413C3.45356 12.4172 3.56906 12.0392 3.91095 11.8271C5.44021 10.8821 6.98796 9.96466 8.54032 9.05648C8.95844 8.81215 9.35346 9.01499 9.72538 9.23858C11.0352 10.0292 12.3427 10.8267 13.6594 11.6058C14.23 11.9424 14.5603 12.4057 14.2046 13.0188C13.8442 13.6412 13.2713 13.5582 12.7146 13.2171C11.7028 12.5993 10.6702 12.0115 9.67918 11.3615C9.16634 11.025 8.75977 10.9927 8.23077 11.3523C7.31367 11.9747 6.34576 12.5256 5.3917 13.0903C5.10063 13.2609 4.77954 13.3807 4.53929 13.4937Z" fill="#2E051D"/>
<path d="M11.6123 15.2409C11.677 14.6739 12.0004 14.2889 12.5756 14.3258C13.0584 14.3558 13.4419 14.6531 13.4165 15.234C13.3911 15.831 13.0792 16.1652 12.474 16.1422C11.9288 16.1237 11.6585 15.7872 11.6123 15.2409Z" fill="#351425"/>
<path d="M5.35678 14.2981C5.93199 14.4456 6.29929 14.7291 6.23923 15.3308C6.1861 15.8517 5.86731 16.1583 5.3383 16.1467C4.75617 16.1352 4.42121 15.7825 4.42583 15.2132C4.43045 14.6139 4.88322 14.4064 5.35678 14.2981Z" fill="#321224"/>
<path d="M6.48389 7.16872C6.59015 5.75113 7.79138 5.82028 8.72003 5.59208C9.20052 5.47452 9.52393 5.84102 9.65791 6.31816C8.46361 6.09919 7.47259 6.62704 6.48389 7.16872Z" fill="#2E0B1E"/>
<path d="M3.22223 5.28549C3.21068 6.0231 3.93835 6.61319 3.6496 7.40612C3.25458 7.02118 2.86186 6.63624 2.46684 6.2513C2.36982 5.81104 2.29359 5.37538 2.69785 5.02963C2.97506 4.90516 3.09518 5.10339 3.22223 5.28549Z" fill="#2E0B1E"/>
<path d="M3.64258 7.39919C4.54812 7.90629 5.26424 7.19865 6.06583 7.03499C6.19289 7.00964 6.34766 7.11567 6.49088 7.16177C5.97805 7.5444 5.46753 7.95009 4.82302 8.06765C4.27322 8.17137 3.86896 7.91551 3.64258 7.39919Z" fill="#2E0B1E"/>
<path d="M2.76255 5.05498C2.5431 5.42378 2.89654 5.93319 2.46686 6.25129C2.26589 6.31352 2.0626 6.438 1.87549 6.22132C2.26358 5.82947 1.86394 5.2025 2.29823 4.82447C2.56389 4.67695 2.78103 4.62855 2.76255 5.05498Z" fill="#300220"/>
<path d="M15.2231 4.32659C11.2267 4.32659 7.23029 4.32659 3.23389 4.32659C3.45103 4.12605 3.72362 4.13296 3.99159 4.13296C7.48209 4.13296 10.9726 4.13296 14.4631 4.13296C14.7334 4.13296 15.006 4.12605 15.2231 4.32659Z" fill="#FEF7FD"/>
<path d="M2.76253 5.05496C2.60776 4.97889 2.45298 4.90052 2.29821 4.82445C2.29821 4.76222 2.2959 4.69998 2.2959 4.63544C2.67937 4.63314 3.06284 4.63083 3.44631 4.62622C3.37239 4.8452 3.29616 5.06418 3.22223 5.28546C3.06977 5.20709 2.915 5.13102 2.76253 5.05496Z" fill="#2B0818"/>
</g>
<defs>
<clipPath id="clip0_1812_6964">
<rect width="18" height="18" fill="white"/>
</clipPath>
</defs>
</svg>
