<svg width="18" height="18" viewBox="0 0 18 18" fill="none" xmlns="http://www.w3.org/2000/svg">
<path d="M2.43426 5.33934L2.78418 4.99304L14.0661 16.1555C14.3441 16.4306 14.7064 16.5682 15.0737 16.5682C15.4212 16.5682 15.7661 16.4454 16.0416 16.1924C16.3468 15.9124 16.4982 15.5366 16.4982 15.156C16.4982 14.7925 16.3593 14.4314 16.0763 14.1539L4.9284 3.23455L0.997334 1.2894L1.07923 1.1273V1.30659C1.04945 1.30659 1.01719 1.29922 0.997334 1.2894L1.07923 1.1273V1.30659V1.12484L1.21076 1.25501C1.18098 1.28448 1.13631 1.30659 1.07923 1.30659V1.12484L1.21076 1.25501L1.07675 1.12239H1.26536C1.26536 1.17888 1.24054 1.22554 1.21076 1.25501L1.07675 1.12239H1.26536H1.08419L1.25295 1.05608C1.2604 1.07327 1.26536 1.09783 1.26536 1.12239H1.08419L1.25295 1.05608L2.89586 5.15514L2.43426 5.33934L1.97265 5.52108L0.329748 1.41956C0.29004 1.32378 0.270186 1.22063 0.272668 1.12239C0.272668 0.896436 0.369456 0.697501 0.513396 0.557509C0.657337 0.417517 0.855875 0.326644 1.08171 0.324188C1.20332 0.324188 1.32989 0.35366 1.44405 0.410148L5.51657 2.42652L16.7737 13.4564C17.2502 13.923 17.4909 14.542 17.4909 15.156C17.4909 15.797 17.2303 16.4404 16.7166 16.912C16.2525 17.3369 15.6619 17.5481 15.0737 17.5481C14.4558 17.5481 13.8328 17.3123 13.3638 16.8481L2.00988 5.61441L1.97265 5.52108L2.43426 5.33934Z" fill="url(#paint0_linear_1810_6366)"/>
<path d="M11.7358 14.5296L14.4533 11.9459C14.6518 11.7568 14.9645 11.7641 15.1556 11.9606C15.3467 12.1571 15.3393 12.4665 15.1407 12.6557L12.4232 15.2394C12.2247 15.4285 11.912 15.4211 11.7209 15.2246C11.5323 15.0306 11.5397 14.7187 11.7358 14.5296Z" fill="url(#paint1_linear_1810_6366)"/>
<path d="M2.07706 4.9979L4.62828 2.37244C4.81937 2.17596 5.13207 2.17104 5.33061 2.3577C5.52915 2.54681 5.53411 2.85627 5.3455 3.05275L2.7918 5.67821C2.60071 5.87469 2.28801 5.8796 2.08947 5.69294C1.89341 5.50383 1.88597 5.19438 2.07706 4.9979Z" fill="url(#paint2_linear_1810_6366)"/>
<path d="M9.00648 4.45262L12.9773 0.414963C13.2478 0.139892 13.6101 -0.000100285 13.9675 0.00235571C14.3248 0.00235571 14.6872 0.139892 14.9552 0.414963L17.6082 3.11165C17.8687 3.37689 18.0003 3.72319 18.0003 4.06457C18.0003 4.40596 17.8687 4.75225 17.6106 5.0175L13.7937 8.90043C13.6026 9.09445 13.2875 9.09937 13.0914 8.91026C12.8954 8.72114 12.8904 8.40923 13.0815 8.21521L16.8959 4.33228C16.9704 4.25614 17.0051 4.16281 17.0051 4.06457C17.0051 3.96633 16.9704 3.87301 16.8959 3.79687L14.2454 1.10019C14.1685 1.02159 14.0692 0.984754 13.9675 0.984754C13.8657 0.984754 13.7664 1.02159 13.6895 1.10019L9.71874 5.13784C9.52765 5.33187 9.21247 5.33678 9.01641 5.14767C8.82035 4.95856 8.81539 4.64664 9.00648 4.45262Z" fill="url(#paint3_linear_1810_6366)"/>
<path d="M13.95 4.64924L15.6674 6.28248C15.8659 6.47159 15.8709 6.78104 15.6823 6.97752C15.4937 7.174 15.1785 7.17892 14.9799 6.99226L13.2626 5.35902C13.064 5.16991 13.0591 4.86046 13.2477 4.66398C13.4363 4.4675 13.754 4.46258 13.95 4.64924Z" fill="url(#paint4_linear_1810_6366)"/>
<path d="M4.94857 9.73066L1.23342 13.6087C1.07211 13.7781 0.992693 13.9894 0.992693 14.2079C0.992693 14.4363 1.07955 14.6598 1.25824 14.8318L3.261 16.772C3.43224 16.9366 3.65063 17.0176 3.87398 17.0176C4.10975 17.0176 4.33807 16.9267 4.51427 16.745L8.11526 12.9849C8.30387 12.7884 8.61905 12.7786 8.81759 12.9652C9.01613 13.1519 9.02606 13.4638 8.83745 13.6603L5.23397 17.4204C4.86668 17.806 4.37033 18 3.87398 18C3.40245 18 2.92844 17.8232 2.56363 17.472L0.560871 15.5317C0.188612 15.1707 0 14.6869 0 14.2079C0 13.7511 0.171239 13.2894 0.513718 12.9333L4.22887 9.05772C4.41748 8.86124 4.73266 8.85141 4.9312 9.03807C5.12974 9.22472 5.13718 9.53418 4.94857 9.73066Z" fill="url(#paint5_linear_1810_6366)"/>
<path d="M5.15448 13.3974L6.81724 15.0822C7.00833 15.2762 7.00585 15.5881 6.8098 15.7772C6.61374 15.9663 6.29856 15.9639 6.10747 15.7699L4.44471 14.085C4.25361 13.891 4.25609 13.5791 4.45215 13.39C4.64821 13.2009 4.96339 13.2033 5.15448 13.3974Z" fill="url(#paint6_linear_1810_6366)"/>
<defs>
<linearGradient id="paint0_linear_1810_6366" x1="21.0452" y1="12.4125" x2="5.40443" y2="4.59462" gradientUnits="userSpaceOnUse">
<stop stop-color="#41C5F5"/>
<stop offset="1" stop-color="#2460E4"/>
</linearGradient>
<linearGradient id="paint1_linear_1810_6366" x1="16.0603" y1="14.3128" x2="12.7442" y2="12.5887" gradientUnits="userSpaceOnUse">
<stop stop-color="#41C5F5"/>
<stop offset="1" stop-color="#2460E4"/>
</linearGradient>
<linearGradient id="paint2_linear_1810_6366" x1="6.21517" y1="4.75355" x2="2.97274" y2="3.16051" gradientUnits="userSpaceOnUse">
<stop stop-color="#41C5F5"/>
<stop offset="1" stop-color="#2460E4"/>
</linearGradient>
<linearGradient id="paint3_linear_1810_6366" x1="13.4332" y1="9.04907" x2="13.4332" y2="0.0023241" gradientUnits="userSpaceOnUse">
<stop stop-color="#7863E6"/>
<stop offset="0.71" stop-color="#E29EB2"/>
</linearGradient>
<linearGradient id="paint4_linear_1810_6366" x1="14.465" y1="7.12866" x2="14.465" y2="4.51284" gradientUnits="userSpaceOnUse">
<stop stop-color="#7863E6"/>
<stop offset="0.71" stop-color="#E29EB2"/>
</linearGradient>
<linearGradient id="paint5_linear_1810_6366" x1="4.48646" y1="18" x2="4.48646" y2="8.904" gradientUnits="userSpaceOnUse">
<stop stop-color="#7863E6"/>
<stop offset="0.71" stop-color="#E29EB2"/>
</linearGradient>
<linearGradient id="paint6_linear_1810_6366" x1="5.63097" y1="15.9172" x2="5.63097" y2="13.25" gradientUnits="userSpaceOnUse">
<stop stop-color="#7863E6"/>
<stop offset="0.71" stop-color="#E29EB2"/>
</linearGradient>
</defs>
</svg>
