<svg width="19" height="19" viewBox="0 0 19 19" fill="none" xmlns="http://www.w3.org/2000/svg">
<path d="M2.38472 13.4677L2.77072 13.8497L15.216 1.53615C15.5227 1.23271 15.9224 1.08099 16.3275 1.08099C16.7108 1.08099 17.0913 1.21646 17.3952 1.49551C17.7319 1.80436 17.8989 2.21888 17.8989 2.63881C17.8989 3.03978 17.7456 3.43804 17.4335 3.74419L5.13605 15.7895L0.79962 17.9353L0.889962 18.1141V17.9163C0.857111 17.9163 0.821521 17.9244 0.79962 17.9353L0.889962 18.1141V17.9163V18.1168L1.03506 17.9732C1.00221 17.9407 0.952928 17.9163 0.889962 17.9163V18.1168L1.03506 17.9732L0.887225 18.1195H1.09529C1.09529 18.0572 1.06791 18.0057 1.03506 17.9732L0.887225 18.1195H1.09529H0.895438L1.0816 18.1926C1.08981 18.1737 1.09529 18.1466 1.09529 18.1195H0.895438L1.0816 18.1926L2.89392 13.6709L2.38472 13.4677L1.87551 13.2672L0.0631944 17.7917C0.0193921 17.8973 -0.00250903 18.0111 0.000228608 18.1195C0.000228608 18.3687 0.106997 18.5882 0.26578 18.7426C0.424563 18.897 0.643575 18.9973 0.8927 19C1.02684 19 1.16646 18.9675 1.2924 18.9052L5.78487 16.6809L18.2028 4.51362C18.7284 3.99886 18.994 3.31613 18.994 2.63881C18.994 1.9317 18.7065 1.22187 18.1398 0.701697C17.6279 0.232996 16.9763 0 16.3275 0C15.6459 0 14.9587 0.260088 14.4413 0.772137L1.91658 13.1643L1.87551 13.2672L2.38472 13.4677Z" fill="url(#paint0_linear_1810_6361)"/>
<path d="M12.6455 3.3295L15.6432 6.17964C15.8622 6.38825 16.2072 6.38012 16.418 6.16338C16.6288 5.94664 16.6206 5.60528 16.4015 5.39667L13.4038 2.54653C13.1848 2.33792 12.8399 2.34605 12.6291 2.56279C12.421 2.77682 12.4292 3.12089 12.6455 3.3295Z" fill="url(#paint1_linear_1810_6361)"/>
<path d="M1.99082 13.8442L4.80511 16.7404C5.01591 16.9571 5.36085 16.9625 5.57987 16.7566C5.79888 16.548 5.80435 16.2067 5.59629 15.9899L2.77926 13.0937C2.56846 12.877 2.22352 12.8716 2.0045 13.0775C1.78823 13.2861 1.78002 13.6274 1.99082 13.8442Z" fill="url(#paint2_linear_1810_6361)"/>
<defs>
<linearGradient id="paint0_linear_1810_6361" x1="22.9148" y1="5.66514" x2="5.66116" y2="14.2892" gradientUnits="userSpaceOnUse">
<stop stop-color="#35C656"/>
<stop offset="1" stop-color="#32C1ED"/>
</linearGradient>
<linearGradient id="paint1_linear_1810_6361" x1="17.416" y1="3.56864" x2="13.7579" y2="5.47057" gradientUnits="userSpaceOnUse">
<stop stop-color="#35C656"/>
<stop offset="1" stop-color="#32C1ED"/>
</linearGradient>
<linearGradient id="paint2_linear_1810_6361" x1="6.55564" y1="14.1137" x2="2.97886" y2="15.871" gradientUnits="userSpaceOnUse">
<stop stop-color="#35C656"/>
<stop offset="1" stop-color="#32C1ED"/>
</linearGradient>
</defs>
</svg>
